<?xml version="1.0" encoding="UTF-8"?>
<svg version="1.1" viewBox="0 0 2048 2048" width="512" height="512" xmlns="http://www.w3.org/2000/svg">
<path transform="translate(891,616)" d="m0 0h110l2 1v71l4-1h224l12 2 11 6 13 12 15 15 7 8 24 26 1 3h2l7 8 22 24 12 13 1 3h2l7 8 9 10 12 11 14 7 4 1 197 1 18 1 10 3 12 7 9 9 6 9 4 12 1 7 1 68 3 12 5 10 9 10 11 7 10 3 7 1h43l12-3 10-5 10-9 7-11 4-13 1-18 4-18 6-11 9-9 14-8 12-3h14l12 3 13 8 26 24 30 28 12 11 4 3v2l4 2 18 18 8 14 2 8 1 19v195l-1 104-4 13-7 11-4 5-8 7-10 10-8 7-9 9-8 7-8 8-8 7-8 8-8 7-12 11-11 7-10 4-5 1h-18l-12-4-11-7-7-7-7-11-4-12-3-26-5-15-7-11-10-8-9-4-12-2h-42l-14 3-10 5-10 9-8 14-3 11-1 182-2 14-5 12-7 9-9 8-13 6-10 2h-903l-12-4-11-7-9-10-13-22-15-26-16-28-13-22-9-10-9-6-13-4-8-1-191-1-10-2-10-4-9-7-9-10-6-12-2-9v-237h-76l-2-5v-118l2-2h76v-238l4-13 7-11 9-9 12-7 10-3 101-1 16-2 11-5 8-6 8-9 8-16 14-30 9-17 7-9 10-8 11-5 12-2h284v-70zm10 239-3 8-20 73-16 58-26 94-22 80-4 14 1 4h197l-12 36-13 41-10 31-21 64-13 41-17 51 1 3 11-14 8-10 11-14 14-18 12-15 10-13 22-28 12-15 12-16 13-16 13-17 9-11 12-16 13-16 10-13 28-36 9-11 12-16 13-16 10-13 14-18 13-16 13-17 10-13 11-14 3-5-50 1-104 4-48 1 3-10 13-38 48-144 1-5z"/>
<path transform="translate(138,863)" d="m0 0h57l10 2 8 7 3 6 1 11v490l-1 24-3 6-7 7-11 2h-58l-14-2-13-4-11-6-9-7-5-5-8-9-8-14-4-13-2-19v-402l2-15 6-16 6-10 11-13 14-10 16-7 10-2z"/>
<path transform="translate(761,422)" d="m0 0h366l14 1 16 5 12 7 10 9 9 11 6 13 3 11 1 7v57l-3 8-6 7-3 2-6 1h-468l-7-3-5-5-3-4-1-3-1-12v-39l1-14 4-15 8-15 12-13 14-9 13-5z"/>
</svg>
