<?xml version="1.0" standalone="no"?>
<!DOCTYPE svg PUBLIC "-//W3C//DTD SVG 20010904//EN"
 "http://www.w3.org/TR/2001/REC-SVG-20010904/DTD/svg10.dtd">
<svg version="1.0" xmlns="http://www.w3.org/2000/svg"
 width="451pt" height="83pt" viewBox="0 0 451 83"
 preserveAspectRatio="xMidYMid meet">
<metadata>
Created by potrace 1.8, written by Peter Selinger 2001-2007
</metadata>
<g transform="translate(0,83) scale(0.030067,-0.030067)"
fill="#000000" stroke="none">
<path d="M9709 2636 c-2 -2 -37 -7 -78 -11 -40 -3 -94 -10 -120 -15 -52 -10
-725 -5 -871 6 -126 9 -304 10 -361 1 -97 -15 -208 -66 -264 -121 -45 -43 -86
-124 -100 -193 -13 -63 -5 -172 15 -234 17 -50 22 -92 24 -199 2 -109 7 -148
25 -203 25 -74 63 -127 91 -127 36 0 76 56 89 128 23 114 46 132 81 62 11 -22
24 -40 29 -40 27 0 58 73 63 149 4 54 18 61 41 21 23 -39 38 -38 59 3 23 45
29 78 29 158 0 78 10 87 76 70 50 -13 138 -6 186 13 37 16 50 36 23 36 -22 0
-28 17 -16 40 8 15 21 20 52 20 39 0 107 18 118 31 3 3 16 12 28 18 29 15 23
23 -20 28 -45 4 -78 23 -78 44 0 25 36 42 68 34 48 -12 63 -14 160 -20 235
-14 379 -5 476 32 59 22 106 46 106 55 0 5 5 8 11 8 29 0 85 86 105 163 l12
47 -27 0 c-15 0 -30 -2 -32 -4z m-1186 -169 c36 1 45 -9 29 -33 -9 -14 -68
-34 -98 -34 -13 0 -24 -4 -24 -10 0 -15 -40 -33 -85 -38 -22 -2 -49 -12 -60
-22 -38 -33 -61 -40 -94 -29 -29 10 -62 48 -44 50 4 0 26 2 47 3 32 3 46 11
75 45 33 37 39 40 72 35 30 -5 41 -2 64 21 23 20 35 25 55 19 14 -4 42 -7 63
-7z m-425 -324 c12 -3 22 -8 23 -12 0 -3 2 -30 5 -59 3 -46 1 -53 -14 -50 -9
2 -18 14 -20 28 -2 14 -14 35 -28 48 -29 27 -34 68 -6 57 9 -4 27 -10 40 -12z"/>
<path d="M7760 2320 c-36 -22 -71 -40 -77 -40 -7 0 -13 -4 -13 -8 0 -4 -32
-26 -71 -47 -67 -37 -127 -71 -174 -99 -11 -6 -46 -27 -77 -45 -32 -18 -58
-35 -58 -37 0 -5 23 -47 30 -54 3 -3 15 -23 26 -45 70 -131 76 -138 100 -116
5 5 32 21 59 36 28 15 73 41 100 57 28 16 69 38 93 49 23 11 42 24 42 29 0 6
3 9 8 8 4 -1 24 7 45 17 38 19 38 20 32 65 -14 102 -15 167 -2 218 8 28 11 52
8 52 -3 -1 -35 -19 -71 -40z"/>
<path d="M1412 2034 c-157 -38 -321 -115 -412 -196 -19 -16 -46 -40 -60 -52
-39 -33 -119 -145 -155 -216 -38 -75 -83 -216 -92 -287 -8 -68 -8 -240 0 -288
11 -59 60 -154 106 -202 50 -53 114 -90 202 -118 69 -21 84 -22 529 -23 l459
-1 12 57 c15 76 15 75 22 92 4 12 27 111 43 185 1 6 7 30 14 55 7 25 14 56 17
70 2 14 17 75 32 135 16 61 27 112 24 115 -2 3 -130 5 -284 6 l-279 0 -12 -40
c-6 -23 -12 -45 -14 -51 -1 -5 -25 -106 -55 -223 l-53 -213 -89 2 c-147 3
-149 13 -71 314 25 99 50 196 54 215 4 19 22 91 39 160 17 69 34 134 36 144
30 130 93 177 226 171 72 -3 130 -22 200 -65 27 -16 50 -26 52 -22 3 4 25 46
51 94 l47 87 -38 24 c-59 36 -111 55 -236 86 -65 17 -215 10 -315 -15z"/>
<path d="M3089 2055 c-2 -1 -22 -5 -44 -8 -109 -16 -219 -50 -295 -94 -14 -8
-33 -17 -42 -20 -10 -3 -18 -9 -18 -14 0 -5 -6 -9 -12 -9 -17 0 -127 -104
-170 -160 -59 -78 -123 -220 -145 -320 -33 -158 -29 -352 11 -445 51 -118 61
-132 185 -245 32 -29 177 -89 245 -101 148 -25 398 11 535 78 42 20 78 39 81
43 3 3 21 17 40 30 42 30 119 111 155 163 25 37 76 132 82 152 1 6 16 48 32
95 17 47 32 99 35 115 3 17 8 43 12 58 27 125 17 277 -27 382 -7 17 -12 33
-11 36 1 4 -8 15 -18 24 -11 10 -20 22 -20 27 0 19 -103 107 -162 138 -90 48
-221 78 -344 78 -56 1 -104 -1 -105 -3z m179 -220 c23 -27 29 -74 13 -103 -5
-9 -12 -30 -15 -47 -12 -69 -38 -179 -46 -201 -5 -13 -7 -24 -4 -24 2 0 0 -8
-5 -17 -5 -10 -12 -35 -15 -56 -6 -38 -28 -128 -71 -297 -13 -52 -27 -113 -31
-135 -7 -48 -37 -100 -70 -122 -62 -40 -173 7 -174 75 0 13 18 99 41 190 22
92 43 175 45 186 3 19 75 314 98 406 8 30 17 67 20 82 8 36 56 87 92 97 42 11
95 -4 122 -34z"/>
<path d="M4719 2056 c-2 -2 -25 -6 -52 -9 -26 -3 -51 -9 -56 -12 -6 -3 -29 -8
-52 -11 -95 -14 -270 -106 -352 -186 -53 -53 -111 -131 -140 -189 -36 -75 -77
-186 -70 -192 3 -3 1 -12 -3 -19 -5 -7 -9 -17 -10 -23 -1 -5 -6 -30 -10 -55
-11 -53 -12 -230 -2 -280 12 -67 38 -135 71 -186 37 -60 102 -134 117 -134 5
0 10 -4 10 -10 0 -5 6 -10 14 -10 8 0 16 -7 20 -15 3 -8 9 -14 13 -13 4 1 28
-9 53 -22 82 -45 161 -59 311 -55 75 1 141 5 147 8 5 4 28 9 51 12 43 5 196
60 220 78 14 12 47 32 71 44 17 8 114 104 145 144 71 90 152 284 180 430 16
80 22 250 10 289 -2 8 -7 30 -10 48 -10 58 -66 155 -120 207 -105 102 -244
154 -436 161 -63 2 -117 3 -120 0z m144 -197 c38 -17 51 -50 42 -106 -10 -70
-12 -76 -18 -93 -7 -21 -36 -139 -41 -170 -2 -14 -13 -59 -25 -100 -11 -41
-23 -90 -26 -109 -3 -18 -14 -65 -25 -105 -11 -39 -21 -82 -24 -96 -2 -14 -14
-64 -26 -113 -23 -91 -61 -146 -102 -148 -10 -1 -26 -2 -35 -2 -30 -1 -82 32
-98 63 -17 33 -19 23 67 370 27 113 52 214 54 225 9 45 49 205 67 270 20 67
45 106 77 118 26 10 88 7 113 -4z"/>
<path d="M5791 2020 c-6 -4 -70 -245 -86 -321 -2 -9 -24 -99 -50 -200 -26
-101 -49 -194 -51 -205 -2 -12 -25 -102 -50 -200 -47 -184 -51 -201 -60 -244
-3 -14 -14 -56 -25 -95 -10 -38 -19 -78 -19 -87 0 -17 25 -18 458 -14 251 2
467 6 479 9 146 37 263 84 318 128 78 63 195 206 195 239 0 5 4 10 8 10 6 0
28 41 36 70 1 3 11 30 23 60 19 51 55 191 68 270 8 46 9 167 1 210 -10 58 -49
159 -68 180 -10 10 -18 22 -18 25 0 20 -113 97 -180 123 -113 44 -130 45 -558
46 -228 1 -417 -1 -421 -4z m683 -175 c52 -34 56 -65 24 -195 -16 -63 -31
-123 -33 -133 -2 -10 -7 -28 -11 -39 -3 -11 -7 -30 -9 -41 -4 -25 -7 -38 -29
-122 -9 -33 -19 -71 -21 -85 -3 -14 -19 -79 -35 -145 -17 -66 -33 -129 -35
-139 -3 -11 -10 -23 -17 -28 -7 -4 -9 -8 -4 -8 16 0 -40 -49 -68 -60 -30 -11
-159 -14 -169 -4 -4 4 -3 12 0 18 4 6 8 16 10 21 10 48 63 266 94 385 10 41
26 109 35 150 9 41 20 82 24 90 4 8 11 31 14 50 7 41 7 43 43 185 15 61 31
113 36 116 18 13 124 1 151 -16z"/>
<path d="M8595 2020 c-2 -5 -1 -15 8 -50 2 -8 14 -47 26 -87 12 -39 24 -78 25
-85 1 -7 10 -38 19 -68 24 -76 117 -399 124 -430 10 -44 9 -46 -47 -240 -23
-80 -44 -155 -46 -167 -2 -12 -8 -33 -13 -45 -5 -13 -9 -25 -9 -28 0 -3 -7
-31 -17 -62 -9 -31 -18 -68 -21 -82 l-4 -24 311 1 312 2 13 45 c8 25 16 56 19
70 7 34 15 72 20 90 15 54 69 263 77 302 6 26 18 55 27 65 9 10 36 45 61 78
25 33 51 64 57 68 7 4 13 14 13 20 0 7 8 20 18 28 9 9 35 40 57 69 22 29 45
57 50 64 6 6 30 38 55 71 25 33 51 66 58 73 7 8 25 30 40 50 15 21 29 39 32
42 4 3 19 23 36 45 16 22 39 51 52 65 13 14 31 37 40 53 9 15 20 27 24 27 4 0
8 7 8 15 0 8 5 15 10 15 6 0 10 3 10 8 0 5 -258 9 -305 3 -6 0 -27 -22 -47
-49 -20 -26 -45 -57 -55 -68 -10 -12 -31 -38 -48 -59 -49 -61 -179 -219 -190
-231 -5 -6 -17 -21 -25 -33 -8 -11 -18 -21 -22 -21 -4 0 -28 66 -53 148 -25
81 -55 176 -66 211 -18 55 -25 79 -28 101 -1 3 -136 5 -302 5 -165 0 -302 -2
-304 -5z"/>
<path d="M10162 2020 c-4 -3 -20 -57 -35 -120 -16 -63 -35 -142 -44 -175 -8
-33 -16 -64 -18 -70 -1 -5 -5 -21 -8 -35 -3 -14 -29 -117 -56 -230 -28 -113
-53 -216 -55 -230 -3 -14 -24 -97 -46 -185 -22 -88 -49 -197 -59 -241 l-18
-82 542 0 543 0 5 21 c3 12 17 67 31 122 14 55 26 103 26 108 0 4 -108 7 -240
7 l-239 0 6 33 c3 17 14 58 24 89 10 32 21 74 24 95 4 21 11 52 16 69 l10 32
122 0 c67 1 138 1 157 1 l36 1 28 118 c16 64 30 122 33 128 2 7 -46 10 -153
10 -86 -1 -157 1 -159 4 -1 3 8 46 21 95 14 50 30 111 36 136 l12 46 216 1
c118 0 227 1 242 1 23 1 27 6 33 44 4 23 16 71 27 106 38 119 102 105 -515
106 -297 0 -542 -2 -545 -5z"/>
<path d="M11821 2020 c-8 -5 -71 -108 -71 -115 0 -2 -12 -23 -27 -47 -41 -63
-50 -78 -79 -128 -35 -61 -62 -108 -106 -181 -21 -34 -38 -66 -38 -70 0 -5 -4
-9 -10 -9 -5 0 -9 -3 -8 -7 1 -5 -5 -19 -14 -33 -33 -52 -168 -281 -168 -286
0 -3 -12 -24 -27 -47 -16 -23 -33 -51 -40 -62 -39 -64 -80 -134 -93 -157 -8
-15 -41 -71 -72 -123 -32 -53 -58 -97 -58 -99 0 -2 59 -3 130 -4 l131 -1 37
61 c20 33 52 84 70 112 l33 51 234 0 c128 0 236 -3 240 -6 3 -4 8 -44 11 -91
3 -46 6 -93 8 -103 3 -19 14 -20 296 -22 l293 -1 -7 71 c-8 98 -15 163 -20
211 -9 77 -16 151 -21 238 -4 49 -8 96 -9 105 -2 10 -7 54 -11 97 -4 43 -8 86
-10 95 -4 21 -17 171 -21 241 -3 66 -12 150 -20 205 -3 22 -6 55 -6 73 0 17
-3 33 -6 33 -23 4 -535 3 -541 -1z m4 -491 c2 -19 6 -59 10 -89 3 -30 8 -82
10 -115 12 -158 15 -192 20 -217 l5 -28 -169 0 c-147 0 -170 2 -165 15 4 8 11
15 17 15 6 0 7 3 4 7 -4 3 -1 13 6 22 23 27 97 159 97 172 0 7 3 10 6 6 4 -3
18 16 33 43 54 102 116 208 119 205 2 -1 5 -18 7 -36z"/>
<path d="M12972 1955 c-11 -38 -23 -86 -27 -105 -4 -19 -15 -64 -26 -99 -11
-35 -22 -78 -24 -95 -3 -17 -14 -62 -25 -101 -11 -38 -21 -81 -24 -95 -3 -14
-14 -56 -26 -95 -11 -38 -22 -81 -24 -95 -2 -14 -23 -97 -46 -185 -23 -88 -46
-178 -51 -200 -5 -22 -10 -50 -13 -61 -2 -12 -11 -41 -19 -65 -8 -24 -17 -57
-18 -74 l-4 -30 302 -1 301 -2 5 27 c3 14 13 55 22 91 10 36 23 90 30 120 8
30 19 76 25 103 l12 47 43 0 44 0 11 -57 c6 -32 20 -96 31 -143 12 -47 23
-101 25 -120 9 -74 -18 -68 312 -67 291 2 297 2 295 22 -4 38 -12 80 -32 160
-11 44 -22 94 -24 110 -3 17 -13 60 -22 97 l-17 67 28 25 c16 14 32 26 35 26
8 0 117 109 142 141 33 43 80 143 93 199 26 108 14 254 -28 335 -21 40 -96
113 -133 130 -36 15 -66 27 -80 30 -5 2 -30 8 -55 15 -33 10 -170 13 -532 14
l-486 1 -20 -70z m711 -112 c44 -33 51 -65 31 -146 -10 -40 -18 -79 -19 -87
-1 -8 -9 -41 -19 -72 -9 -32 -21 -81 -26 -109 -19 -99 -79 -145 -187 -144 -45
0 -58 3 -57 15 3 30 131 543 140 561 7 14 114 0 137 -18z"/>
<path d="M7825 1946 c-30 -20 -165 -94 -207 -114 -46 -21 -48 -32 -5 -33 17
-1 41 -3 52 -4 11 -1 56 -5 99 -9 44 -4 83 -9 88 -12 4 -3 8 33 7 80 0 47 2
90 6 95 9 15 -17 14 -40 -3z"/>
<path d="M7493 1682 c-1 -22 -9 -66 -17 -98 -16 -61 -15 -73 6 -57 7 6 76 43
153 83 77 40 144 76 150 81 5 5 -7 9 -30 10 -22 0 -49 2 -60 4 -11 2 -61 7
-110 10 l-91 6 -1 -39z"/>
<path d="M7825 1616 c-100 -55 -224 -121 -272 -145 -29 -13 -53 -28 -53 -32 0
-4 47 -101 103 -216 57 -114 114 -230 128 -258 l23 -50 52 50 c28 28 82 73
118 100 37 28 73 55 80 62 7 6 44 32 82 57 38 25 74 49 79 54 6 5 15 11 21 13
42 18 114 67 114 78 0 7 -9 30 -19 50 -10 20 -31 61 -46 91 -15 30 -31 59 -35
63 -4 5 -26 -18 -49 -52 -76 -111 -111 -132 -149 -91 -15 16 -89 153 -97 180
-11 34 -28 70 -33 69 -4 0 -25 -10 -47 -23z"/>
<path d="M7352 1252 c-30 -70 -64 -152 -77 -182 -39 -93 -97 -252 -111 -308
-27 -101 -96 -223 -169 -298 -16 -17 -39 -43 -50 -59 -11 -15 -25 -32 -31 -39
-14 -15 -44 -93 -44 -114 0 -10 8 -27 17 -39 16 -19 19 -19 51 -6 34 14 182
101 192 112 3 3 23 19 45 36 22 16 45 34 51 40 6 5 28 24 49 40 49 39 183 166
249 234 28 29 65 68 81 85 17 17 42 46 56 65 l26 33 -64 127 c-36 69 -85 163
-109 209 -50 94 -55 102 -80 155 -10 20 -21 37 -24 37 -3 0 -29 -58 -58 -128z"/>
<path d="M8249 1201 c-42 -25 -89 -55 -104 -66 -96 -71 -173 -130 -192 -149
-12 -11 -39 -34 -58 -51 -35 -28 -109 -103 -184 -184 -92 -99 -248 -255 -302
-303 -34 -29 -67 -57 -73 -63 -41 -37 -106 -85 -115 -85 -6 0 -11 -4 -11 -9 0
-11 -193 -129 -225 -137 -14 -3 -25 -9 -25 -14 0 -14 38 -50 53 -50 23 0 214
105 237 130 3 3 23 17 45 32 22 15 54 39 70 53 17 14 48 40 70 58 50 40 426
417 417 417 -4 0 8 10 25 21 18 12 31 24 28 28 -2 5 7 14 20 21 14 7 25 17 25
21 0 23 326 264 398 294 17 8 32 16 32 19 0 12 -36 61 -45 62 -6 1 -44 -19
-86 -45z"/>
</g>
</svg>
