<?xml version="1.0" encoding="UTF-8" standalone="no"?>
<svg
   viewBox="0 0 599.61975 119.35753"
   version="1.1"
   id="svg28"
   sodipodi:docname="1302934-edit.svg"
   width="599.61975"
   height="119.35753"
   inkscape:version="1.4.2 (f4327f4, 2025-05-13)"
   xmlns:inkscape="http://www.inkscape.org/namespaces/inkscape"
   xmlns:sodipodi="http://sodipodi.sourceforge.net/DTD/sodipodi-0.dtd"
   xmlns="http://www.w3.org/2000/svg"
   xmlns:svg="http://www.w3.org/2000/svg">
  <defs
     id="defs28" />
  <sodipodi:namedview
     id="namedview28"
     pagecolor="#ffffff"
     bordercolor="#000000"
     borderopacity="0.25"
     inkscape:showpageshadow="2"
     inkscape:pageopacity="0.0"
     inkscape:pagecheckerboard="0"
     inkscape:deskcolor="#d1d1d1"
     inkscape:zoom="2.5959004"
     inkscape:cx="225.16272"
     inkscape:cy="59.51692"
     inkscape:window-width="1920"
     inkscape:window-height="1001"
     inkscape:window-x="-9"
     inkscape:window-y="-9"
     inkscape:window-maximized="1"
     inkscape:current-layer="svg28" />
  <g
     fill="none"
     stroke-width="2"
     id="g15"
     transform="translate(-41.763136,-41.431426)">
    <path
       stroke="#fef183"
       d="m 92,148.71 -23.38,0.06 q -0.82,0 -1.08,0.78 l -3.09,9.39 a 0.58,0.57 24.7 0 0 0.26,0.68 q 0.65,0.39 1.1,-0.12 h 478.68 q 0.56,0 0.72,-0.53 l 3.01,-9.69 q 0.18,-0.58 -0.42,-0.56 c -7.26,0.15 -15.51,-0.15 -21.7,-0.16 Q 360.05,148.3 194,148.71"
       vector-effect="non-scaling-stroke"
       id="path1" />
    <path
       stroke="#808080"
       d="m 194,148.71 q 0.13,-4.86 -2.23,-9.07 -0.25,-0.44 -0.24,-0.94 0.25,-16.82 -15.01,-21.15 -2.15,-0.61 -3.76,-1.89 -5.23,-4.15 -11.17,-7.14 a 0.25,0.24 44.3 0 1 -0.01,-0.44 q 15.38,-7.99 7.05,-24.14 -0.21,-0.4 -0.18,-0.85 c 0.61,-8.88 -1.92,-16.92 -10,-21.4 q -0.44,-0.25 -0.66,-0.7 c -2.85,-5.94 -11.43,-5.72 -15.72,-2.01 q -1.87,1.62 -3.51,2.44 -10.01,5.03 -12.43,16.36 -0.11,0.52 -0.49,0.88 -10.89,10.31 -2.46,22.84 0.16,0.24 -0.13,0.27 l -13.8,1.38 a 1.11,1.09 -31.5 0 1 -0.7,-0.16 q -7.09,-4.45 -15.31,-2.75 -1.91,0.39 -5.43,-0.83 -0.48,-0.17 -0.65,-0.64 -1.23,-3.36 -3.77,-5.91 -0.36,-0.37 -0.42,-0.89 -0.89,-8.42 -8.08,-12.62 -0.48,-0.28 -0.41,-0.82 1.43,-11.51 3.2,-20.85 c 1.21,-6.43 -6.06,-7.77 -9.42,-3.27 -0.61,0.82 -0.95,1.96 -1.5,2.95 Q 66.42,57.97 66.11,57.34 63.38,51.87 60.49,46.47 C 59.21,44.07 57.7,42.9 54.98,43.63 q -0.48,0.13 -0.92,-0.11 c -6.81,-3.74 -6.07,3.19 -9.68,5.4 q -0.38,0.24 -0.61,0.62 -0.85,1.43 -0.38,2.99 0.14,0.45 -0.01,0.9 c -2.87,8.49 5.23,23.75 9.89,30.82 q 0.28,0.42 0.03,0.85 -4.77,8.22 -0.03,16.65 0.25,0.45 0.22,0.97 -0.73,11.69 8.98,17.66 0.43,0.27 0.67,0.72 2.98,5.58 8.5,8.49 c 3.98,2.1 5.51,5.15 10.4,6.4 3.4,0.86 5.74,3.01 8.95,4.31 q 0.47,0.19 0.5,0.69 l 0.51,7.72"
       vector-effect="non-scaling-stroke"
       id="path2" />
    <path
       stroke="#7f7204"
       d="m 194,148.71 -2.96,0.04"
       vector-effect="non-scaling-stroke"
       id="path3" />
    <path
       stroke="#808080"
       d="m 191.04,148.75 -0.58,-4.53 a 0.38,0.38 0 0 0 -0.71,-0.15 l -2.54,4.43"
       vector-effect="non-scaling-stroke"
       id="path4" />
    <path
       stroke="#7f7204"
       d="m 187.21,148.5 -7.96,0.21"
       vector-effect="non-scaling-stroke"
       id="path5" />
    <path
       stroke="#808080"
       d="m 179.25,148.71 q 0.33,-3.77 -1.56,-7.05 -0.26,-0.44 -0.77,-0.4 c -21.35,1.84 -42.37,-1.88 -62.29,-9.5 q -0.47,-0.18 -0.76,0.23 -6.8,9.43 -18.61,9.24 -0.49,-0.01 -0.51,0.47 -0.18,3.51 1,7.01"
       vector-effect="non-scaling-stroke"
       id="path6" />
    <path
       stroke="#7f7204"
       d="M 95.75,148.71 H 92"
       vector-effect="non-scaling-stroke"
       id="path7" />
    <path
       stroke="#fef183"
       d="m 191.04,148.75 q -2.08,0.98 -3.83,-0.25 m -7.96,0.21 h -83.5"
       vector-effect="non-scaling-stroke"
       id="path8" />
    <path
       stroke="#93a8cc"
       d="m 347.86,113.65 c -7.31,-4.18 -0.04,-12.91 5.12,-14.93 5.77,-2.25 14.09,-4.31 18.21,1.37 0.28,0.38667 0.51667,0.36 0.71,-0.08 l 5.83,-13.77 c 0.1268,-0.297881 -0.0524,-0.636994 -0.37,-0.7 -8.66,-1.726667 -17.30333,-1.776667 -25.93,-0.15 -13.37,2.53 -28.37,11.78 -29.64,25.94 -1.79,20.02 28.47,18.21 40.14,15.42 0.38,-0.0867 0.63667,-0.31333 0.77,-0.68 l 4.25,-11.58 c 0.14,-0.38667 0.01,-0.54667 -0.39,-0.48 -6.12,1.06 -12.96,2.93 -18.7,-0.36 M 231.55,98.54 c 0.10483,-0.240686 0.46456,-0.162484 0.46,0.1 l -2.27,28.37 c -0.0234,0.30267 0.21644,0.5609 0.52,0.56 l 15.59,-0.1 c 0.41333,-0.007 0.73333,-0.18 0.96,-0.52 l 18.4,-27.49 c 1.05333,-1.573333 1.25,-1.473333 0.59,0.3 l -10.17,27.28 c -0.0834,0.22174 0.0866,0.45866 0.33,0.46 l 17.63,0.04 c 0.40225,9.9e-4 0.76154,-0.24652 0.9,-0.62 l 15.13,-41.06 c 0.14,-0.373333 0.0167,-0.613333 -0.37,-0.72 -1.71,-0.48 -4.09,0.14 -5.22,0.12 -7.24667,-0.08667 -14.52333,-0.196667 -21.83,-0.33 -0.80322,-0.01268 -1.55531,0.387933 -1.99,1.06 l -13.77,21.04 c -0.30667,0.47333 -0.44333,0.43 -0.41,-0.13 0.24667,-4.63333 0.58,-9.27 1,-13.91 0.49333,-5.486667 -1.92333,-8.19 -7.25,-8.11 -7.2,0.113333 -14.41,0.266667 -21.63,0.46 -0.32,0.0067 -0.53333,0.16 -0.64,0.46 l -15.03,41.12 c -0.11844,0.32017 0.11862,0.6603 0.46,0.66 l 17.57,-0.11 c 0.28667,-0.007 0.47667,-0.14333 0.57,-0.41 l 10.47,-28.52 m 54.67,28.6 c -0.0686,0.19409 0.0741,0.39805 0.28,0.4 l 20.01,-0.04 c 0.12609,-0.001 0.23797,-0.0811 0.28,-0.2 l 15.4,-41.91 c 0.0686,-0.194086 -0.0741,-0.398053 -0.28,-0.4 l -19.98,0.04 c -0.12609,0.0012 -0.23797,0.08111 -0.28,0.2 l -15.43,41.91 m 121.06,-13.92 c 0.30787,-0.004 0.525,0.30055 0.42,0.59 l -4.88,13.14 c -0.10353,0.28545 0.10636,0.58749 0.41,0.59 l 18.66,-0.02 c 0.18749,0.003 0.3561,-0.11371 0.42,-0.29 l 15.35,-41.72 c 0.105,-0.289448 -0.11213,-0.594461 -0.42,-0.59 l -18.88,0.38 c -0.18272,0.0072 -0.34196,0.126598 -0.4,0.3 l -5.2,14.6 c -0.0627,0.17283 -0.22617,0.28848 -0.41,0.29 l -9.5,0.01 c -0.30364,-0.003 -0.51353,-0.30455 -0.41,-0.59 l 5.29,-14.32 c 0.10353,-0.285454 -0.10636,-0.58749 -0.41,-0.59 h -18.69 c -0.18749,-0.0027 -0.3561,0.113715 -0.42,0.29 l -15.26,41.62 c -0.10353,0.28545 0.10636,0.58749 0.41,0.59 h 18.68 c 0.18749,0.003 0.3561,-0.11371 0.42,-0.29 l 4.96,-13.6 c 0.0614,-0.16947 0.21986,-0.28438 0.4,-0.29 l 9.46,-0.1 m 50.78,2.76 c -0.21622,-0.003 -0.36759,-0.2146 -0.3,-0.42 l 1.31,-3.84 c 0.0427,-0.1299 0.16327,-0.2183 0.3,-0.22 h 21.82 c 0.13413,-2.1e-4 0.25389,-0.084 0.3,-0.21 l 3.61,-9.86 c 0.0764,-0.20861 -0.0779,-0.42965 -0.3,-0.43 h -21.32 c -0.22042,0.004 -0.37893,-0.21059 -0.31,-0.42 l 1.4,-4.11 c 0.0427,-0.1299 0.16327,-0.218298 0.3,-0.22 h 22.99 c 0.13413,-2.09e-4 0.25389,-0.08405 0.3,-0.21 l 3.96,-10.44 c 0.0764,-0.208609 -0.0779,-0.429653 -0.3,-0.43 l -42.32,0.12 c -0.13413,2.09e-4 -0.25389,0.08404 -0.3,0.21 l -15.29,41.8 c -0.0764,0.20861 0.0778,0.42965 0.3,0.43 l 42.82,-0.23 c 0.13413,-2.1e-4 0.25389,-0.084 0.3,-0.21 l 3.91,-10.74 c 0.0751,-0.2047 -0.0721,-0.42289 -0.29,-0.43 l -22.89,-0.14 m 55.61,-2.48 c -0.24358,8.5e-4 -0.41351,-0.24118 -0.33,-0.47 l 10.16,-27.6 c 0.0835,-0.228815 -0.0864,-0.470846 -0.33,-0.47 l -19.33,0.11 c -0.14379,0.0036 -0.27073,0.09486 -0.32,0.23 l -15.37,41.74 c -0.0835,0.22882 0.0864,0.47085 0.33,0.47 l 39.47,-0.02 c 0.14379,-0.004 0.27073,-0.0949 0.32,-0.23 l 4.89,-13.29 c 0.0835,-0.22882 -0.0864,-0.47085 -0.33,-0.47 h -19.16 m 42.69,14 c 0.14379,-0.004 0.27073,-0.0949 0.32,-0.23 L 572,85.47 c 0.0835,-0.228815 -0.0864,-0.470846 -0.33,-0.47 h -19.85 c -0.14379,0.0036 -0.27073,0.09486 -0.32,0.23 l -15.34,41.8 c -0.0835,0.22882 0.0864,0.47085 0.33,0.47 h 19.87 M 597,99.28 l -1.14,27.55 c -0.02,0.48 0.21,0.72 0.69,0.72 l 27.94,-0.07 c 0.34667,0 0.58,-0.16333 0.7,-0.49 l 15.14,-41.48 c 0.13333,-0.36 0.007,-0.54 -0.38,-0.54 l -16.07,0.1 c -0.40667,0 -0.67667,0.19 -0.81,0.57 l -10.02,27.67 c -0.0781,0.28545 -0.50283,0.20413 -0.47,-0.09 0.49333,-7.08667 0.82667,-14.24 1,-21.46 0.1,-3.826667 -1.41667,-5.983333 -4.55,-6.47 -3.24667,-0.5 -10.86667,-0.463333 -22.86,0.11 -0.29333,0.02 -0.56,-0.05667 -0.8,-0.23 -0.62,-0.43 -1.01,-0.08 -1.24,0.53 -5.06667,13.72 -10.13333,27.47667 -15.2,41.27 -0.12667,0.34667 -0.007,0.52 0.36,0.52 l 16.29,0.04 c 0.38,0 0.63333,-0.18 0.76,-0.54 l 10.19,-27.8 c 0.36,-0.973333 0.51667,-0.943333 0.47,0.09"
       vector-effect="non-scaling-stroke"
       id="path9"
       style="fill:#000000;fill-opacity:1;stroke-width:0;stroke-dasharray:none"
       sodipodi:nodetypes="cccccccccccccccccccccccccccccccccccccccccccccccccccccccccccccccccccccccccccccccccccccccccccccccccccccccccccccccccccccccccccccccccccccccccccccccc" />
    <path
       stroke="#808080"
       d="m 65.64,66.85 0.4,-2.09 q 0.1,-0.54 -0.16,-1.03 -4.15,-7.89 -8.22,-15.81 c -0.55,-1.07 -1.61,-1.68 -2.64,-0.89 q -0.42,0.33 -0.23,0.83 c 0.61,1.6 5.88,13.58 5.04,14.19 q -0.52,0.37 -0.76,-0.22 L 52.72,46.49 Q 52.51,45.98 51.96,46 l -1.81,0.06 q -0.76,0.02 -0.66,0.77 c 0.34,2.66 1.97,4.38 2.73,6.57 q 1.81,5.25 4.45,10.15 0.24,0.45 -0.24,0.6 l -0.33,0.11 q -0.46,0.14 -0.69,-0.28 -2.59,-4.57 -5.02,-11.56 -0.96,-2.75 -3.48,-1.54 -0.41,0.2 -0.41,0.65 v 1.68 q 0,0.56 0.54,0.67 2.69,0.56 3.26,2.61 2.02,7.26 3.21,9.74 0.3,0.63 -0.55,0.78 -0.43,0.07 -0.63,-0.31 -2.12,-3.88 -3.31,-9.44 -0.37,-1.76 -2.27,-1.75 -0.52,0 -0.69,0.49 c -1.95,5.32 7.33,24.14 11.65,27.93 q 0.36,0.32 0.85,0.32 h 2.14 q 0.57,0 0.38,0.53 -1.79,5.15 2.46,8.44 0.55,0.43 -0.12,0.65 C 59.3,95.2 58.08,90.54 57.4,87.7 a 1.05,1.05 0 0 0 -2.02,-0.08 q -2.84,8.72 2.1,14.64 c 4.53,5.43 12.51,6.04 17.96,1.67 6.82,-5.47 5.6,-17.15 -1.86,-21.7 q -0.83,-0.51 -0.59,0.44 0.73,2.89 -0.59,5.53 a 0.47,0.46 -31.3 0 1 -0.88,-0.21 c 0.07,-3.24 -1.21,-5.68 -0.66,-8.84 q 1.98,-11.3 3.68,-22.83 a 1.15,1.14 9.2 0 0 -0.94,-1.3 c -3.78,-0.63 -5.39,9.38 -7.58,12 q -0.53,0.63 -0.38,-0.17 m 72.37,39.59 q -2.51,0 -4.86,-0.9 -0.41,-0.15 -0.8,0.03 l -0.36,0.17 q -0.7,0.34 -0.22,0.96 l 1.55,1.98 q 0.25,0.31 0,0.63 c -0.49,0.61 -3.74,-2.02 -4.33,-2.44 -3.85,-2.71 -11.61,-1.6 -15.99,-0.71 q -0.52,0.11 -0.2,0.53 7.48,9.62 3.5,21.27 a 0.9,0.9 0 0 0 0.53,1.14 c 16.97,6.34 40.22,11.66 58.17,9.1 5.02,-0.72 5.32,-5.32 3.49,-9.19 -3.19,-6.74 -12.57,-17.44 -20.91,-17.57 q -0.66,-0.01 -0.2,-0.48 l 1.64,-1.68 q 0.61,-0.63 -0.14,-1.09 c -0.93,-0.56 -3.42,-0.25 -3.73,-0.79 q -0.29,-0.52 0.27,-0.7 5.28,-1.66 6.75,-2.52 c 7.13,-4.2 8.13,-13.02 2.95,-19.24 q -0.33,-0.39 -0.24,-0.91 2.55,-14.24 -9.84,-20.47 -0.63,-0.32 -0.34,-0.97 0.29,-0.64 -0.57,-1.46 -0.34,-0.32 -0.74,-0.55 -4.12,-2.21 -8.54,0.11 -0.73,0.38 -0.02,0.8 l 0.55,0.32 q 0.88,0.53 -0.12,0.75 -12.42,2.75 -15.83,14.96 -0.14,0.49 0.25,0.82 l 1.01,0.83 q 0.4,0.33 -0.07,0.54 -7.86,3.54 -7.87,11.32 c 0,9.25 7.81,12.76 15.34,14.88 q 1.88,0.52 -0.08,0.53"
       vector-effect="non-scaling-stroke"
       id="path10" />
    <path
       stroke="#808080"
       d="m 57.54,107.31 q -0.56,-0.31 -0.45,0.32 c 2.26,12.95 20.74,16.74 26.51,3.5 q 2.62,-5.99 -0.16,-13 a 0.38,0.38 0 0 0 -0.72,0.05 c -2.84,11.43 -15.38,14.55 -25.18,9.13 m 41.19,-3.65 c 11.8,10.43 6.89,28.27 -7.87,32.73 a 0.19,0.19 0 0 0 -0.01,0.36 c 12.02,4.12 24.54,-5.21 23.47,-18.05 -0.63,-7.61 -6.93,-15.32 -15.4,-15.52 q -0.77,-0.02 -0.19,0.48"
       vector-effect="non-scaling-stroke"
       id="path11" />
    <path
       stroke="#808080"
       d="m 92.41,104.45 c 7.3,11.74 0.26,24.26 -12.97,26.45 q -0.63,0.11 -0.07,0.41 c 19.36,10.23 32.22,-19.54 13.39,-27.27 a 0.28,0.28 0 0 0 -0.35,0.41"
       vector-effect="non-scaling-stroke"
       id="path12" />
    <path
       stroke="#808080"
       d="m 70.75,122.52 q -1.22,-0.01 -2.48,0.02 -0.5,0.02 -0.14,0.37 c 12.77,12.34 31.04,-3.01 20.79,-17.68 q -0.61,-0.86 -0.71,0.18 c -0.98,10.11 -6.51,17.15 -17.46,17.11 m 109.54,17.29 c 1.31,2.86 2.43,4.39 2.05,7.69 a 0.62,0.62 0 0 0 1.09,0.47 c 7.11,-8.42 6.3,-21.72 -4.93,-26.34 q -0.79,-0.32 -0.28,0.37 c 3.41,4.64 6.96,12.17 2.23,16.92 q -0.39,0.39 -0.16,0.89 M 143.645,86.133 a 6.69,4.81 95.1 0 0 5.386,-6.235 6.69,4.81 95.1 0 0 -4.196,-7.091 6.69,4.81 95.1 0 0 -5.386,6.235 6.69,4.81 95.1 0 0 4.196,7.091"
       vector-effect="non-scaling-stroke"
       id="path13" />
    <path
       stroke="#808080"
       d="m 156.514,87.8 a 6.62,4.69 98.3 0 0 5.597,-5.873 6.62,4.69 98.3 0 0 -3.685,-7.228 6.62,4.69 98.3 0 0 -5.597,5.874 6.62,4.69 98.3 0 0 3.685,7.228 M 140.06,91.14 c -0.92,-0.36 -1.07,-0.64 -1.08,-1.61 q -0.01,-1.04 -0.83,-0.4 l -1.68,1.33 q -0.58,0.46 0.13,0.67 c 7.44,2.25 10.68,11 19.57,4.32 1.01,-0.76 5.23,-1.93 4.3,-3.39 q -0.28,-0.44 -0.72,-0.16 c -5.1,3.2 -14.23,1.35 -19.69,-0.76 m 3.28,-14.66 a 1.13,1.12 44.8 0 1 1.59,0 q 3.54,3.48 0.53,7.83 -0.46,0.65 0.24,0.26 c 3.4,-1.93 2.46,-7.46 0.19,-9.62 q -0.42,-0.4 -0.99,-0.33 -4.31,0.5 -4.08,5.17 0.03,0.62 0.65,0.51 l 1.24,-0.23 q 0.84,-0.16 0.39,-0.89 -0.93,-1.54 0.24,-2.7"
       vector-effect="non-scaling-stroke"
       id="path14" />
    <path
       stroke="#808080"
       d="m 157.21,78.19 c 3.54,0.51 2.79,4.25 1.97,6.86 q -0.34,1.08 0.43,0.25 c 2.39,-2.58 2.14,-7.99 -1.83,-8.91 q -0.62,-0.14 -1.15,0.19 -2.94,1.87 -2.62,5.38 0.06,0.76 0.7,0.33 l 1.41,-0.95 q 0.47,-0.32 0.17,-0.8 -0.68,-1.1 0,-1.98 0.35,-0.46 0.92,-0.37 m -3.47,16.99 -8.56,-0.76 q -0.89,-0.08 -0.15,0.42 4.18,2.79 8.78,0.79 a 0.24,0.23 -54.1 0 0 -0.07,-0.45"
       vector-effect="non-scaling-stroke"
       id="path15" />
  </g>
  <path
     fill="#010101"
     d="m 152.23686,107.27857 -2.96,0.04 -0.58,-4.53 a 0.38,0.38 0 0 0 -0.71,-0.15 l -2.54,4.43 -7.96,0.21 q 0.33,-3.77 -1.56,-7.05 -0.26,-0.439996 -0.77,-0.399996 c -21.35,1.839996 -42.369996,-1.88 -62.289996,-9.5 q -0.47,-0.18 -0.76,0.23 -6.8,9.43 -18.61,9.24 -0.49,-0.01 -0.51,0.469996 -0.18,3.51 1,7.01 h -3.75 l -0.51,-7.719996 q -0.03,-0.5 -0.5,-0.69 c -3.21,-1.3 -5.55,-3.45 -8.95,-4.31 -4.89,-1.25 -6.42,-4.3 -10.4,-6.4 q -5.52,-2.91 -8.5,-8.49 -0.24,-0.45 -0.67,-0.72 -9.71,-5.97 -8.98,-17.66 0.03,-0.52 -0.22,-0.97 -4.7400003,-8.43 0.03,-16.65 0.25,-0.43 -0.03,-0.85 c -4.6600003,-7.07 -12.7600003,-22.33 -9.8900003,-30.82 q 0.15,-0.45 0.01,-0.9 -0.47,-1.5600001 0.38,-2.9900001 0.23,-0.38 0.61,-0.62 c 3.61,-2.21 2.87,-9.14 9.6800003,-5.4 q 0.44,0.24 0.92,0.11 c 2.72,-0.73 4.23,0.44 5.51,2.84 q 2.89,5.4000001 5.62,10.8700001 0.31,0.63 0.65,0.02 c 0.55,-0.99 0.89,-2.13 1.5,-2.95 3.36,-4.5000001 10.63,-3.1600001 9.42,3.27 q -1.77,9.34 -3.2,20.85 -0.07,0.54 0.41,0.82 7.19,4.2 8.08,12.62 0.06,0.52 0.42,0.89 2.54,2.55 3.77,5.91 0.17,0.47 0.65,0.64 3.52,1.22 5.43,0.83 8.22,-1.7 15.31,2.75 a 1.09,1.11 58.5 0 0 0.7,0.16 l 13.8,-1.38 q 0.29,-0.03 0.13,-0.27 -8.43,-12.53 2.46,-22.84 0.38,-0.36 0.49,-0.88 2.42,-11.33 12.43,-16.36 1.64,-0.82 3.509996,-2.44 c 4.29,-3.71 12.87,-3.93 15.72,2.01 q 0.22,0.45 0.66,0.7 c 8.08,4.48 10.61,12.52 10,21.4 q -0.03,0.45 0.18,0.85 8.33,16.15 -7.05,24.14 a 0.25,0.24 44.3 0 0 0.01,0.44 q 5.94,2.99 11.17,7.14 1.61,1.28 3.76,1.89 15.26,4.33 15.01,21.15 -0.01,0.5 0.24,0.94 2.36,4.209996 2.23,9.069996 z M 23.876864,25.418574 l 0.4,-2.09 q 0.1,-0.54 -0.16,-1.03 -4.15,-7.89 -8.22,-15.8100001 c -0.55,-1.07 -1.61,-1.68 -2.64,-0.89 q -0.42,0.33 -0.23,0.83 c 0.61,1.6 5.88,13.5800001 5.04,14.1900001 q -0.52,0.37 -0.76,-0.22 l -6.35,-15.3400001 q -0.21,-0.51 -0.76,-0.49 l -1.8100003,0.06 q -0.76,0.02 -0.66,0.77 c 0.34,2.66 1.97,4.38 2.7300003,6.5700001 q 1.81,5.25 4.45,10.15 0.24,0.45 -0.24,0.6 l -0.33,0.11 q -0.46,0.14 -0.69,-0.28 -2.59,-4.57 -5.0200003,-11.56 -0.96,-2.7500001 -3.48,-1.5400001 -0.41,0.2 -0.41,0.6500001 v 1.68 q 0,0.56 0.54,0.67 2.69,0.56 3.26,2.61 2.0200003,7.26 3.2100003,9.74 0.3,0.63 -0.55,0.78 -0.43,0.07 -0.63,-0.31 -2.1200003,-3.88 -3.3100003,-9.44 -0.37,-1.76 -2.27,-1.75 -0.52,0 -0.69,0.49 c -1.95,5.32 7.3300003,24.14 11.6500003,27.93 q 0.36,0.32 0.85,0.32 h 2.14 q 0.57,0 0.38,0.53 -1.79,5.15 2.46,8.44 0.55,0.43 -0.12,0.65 c -4.12,1.33 -5.34,-3.33 -6.02,-6.17 a 1.05,1.05 0 0 0 -2.02,-0.08 q -2.84,8.72 2.1,14.64 c 4.53,5.43 12.51,6.04 17.96,1.67 6.82,-5.47 5.6,-17.15 -1.86,-21.7 q -0.83,-0.51 -0.59,0.44 0.73,2.89 -0.59,5.53 a 0.46,0.47 58.7 0 1 -0.88,-0.21 c 0.07,-3.24 -1.21,-5.68 -0.66,-8.84 q 1.98,-11.3 3.68,-22.83 a 1.15,1.14 9.2 0 0 -0.94,-1.3 c -3.78,-0.63 -5.39,9.38 -7.58,12 q -0.53,0.63 -0.38,-0.17 z m 72.37,39.59 q -2.51,0 -4.86,-0.9 -0.41,-0.15 -0.8,0.03 l -0.36,0.17 q -0.7,0.34 -0.22,0.96 l 1.55,1.98 q 0.25,0.31 0,0.63 c -0.49,0.61 -3.74,-2.02 -4.33,-2.44 -3.85,-2.71 -11.61,-1.6 -15.99,-0.71 q -0.52,0.11 -0.2,0.53 7.48,9.62 3.5,21.27 a 0.9,0.9 0 0 0 0.53,1.14 c 16.97,6.34 40.219996,11.66 58.169996,9.1 5.02,-0.72 5.32,-5.32 3.49,-9.19 -3.19,-6.74 -12.57,-17.44 -20.91,-17.57 q -0.66,-0.01 -0.2,-0.48 l 1.64,-1.68 q 0.61,-0.63 -0.14,-1.09 c -0.93,-0.56 -3.42,-0.25 -3.73,-0.79 q -0.29,-0.52 0.27,-0.7 5.28,-1.66 6.75,-2.52 c 7.13,-4.2 8.13,-13.02 2.95,-19.24 q -0.33,-0.39 -0.24,-0.91 2.55,-14.24 -9.84,-20.47 -0.63,-0.32 -0.34,-0.97 0.29,-0.64 -0.57,-1.46 -0.34,-0.32 -0.74,-0.55 -4.12,-2.21 -8.54,0.11 -0.73,0.38 -0.02,0.8 l 0.55,0.32 q 0.88,0.53 -0.12,0.75 -12.419996,2.75 -15.829996,14.96 -0.14,0.49 0.25,0.82 l 1.01,0.83 q 0.4,0.33 -0.07,0.54 -7.86,3.54 -7.87,11.32 c 0,9.25 7.81,12.76 15.34,14.88 q 1.88,0.52 -0.08,0.53 z m -80.47,0.87 q -0.56,-0.31 -0.45,0.32 c 2.26,12.95 20.74,16.74 26.51,3.5 q 2.62,-5.99 -0.16,-13 a 0.38,0.38 0 0 0 -0.72,0.05 c -2.84,11.43 -15.38,14.55 -25.18,9.13 z m 41.19,-3.65 c 11.8,10.43 6.89,28.27 -7.87,32.73 a 0.19,0.19 0 0 0 -0.01,0.36 c 12.02,4.12 24.54,-5.21 23.47,-18.05 -0.63,-7.61 -6.93,-15.32 -15.4,-15.52 q -0.77,-0.02 -0.19,0.48 z m -6.32,0.79 c 7.3,11.74 0.26,24.26 -12.97,26.45 q -0.63,0.11 -0.07,0.41 c 19.36,10.229996 32.22,-19.54 13.39,-27.27 a 0.28,0.28 0 0 0 -0.35,0.41 z m -21.66,18.07 q -1.22,-0.01 -2.48,0.02 -0.5,0.02 -0.14,0.37 c 12.77,12.34 31.04,-3.01 20.79,-17.68 q -0.61,-0.86 -0.71,0.18 c -0.98,10.11 -6.51,17.15 -17.46,17.11 z m 109.539996,17.29 c 1.31,2.859996 2.43,4.389996 2.05,7.689996 a 0.62,0.62 0 0 0 1.09,0.47 c 7.11,-8.419996 6.3,-21.719996 -4.93,-26.339996 q -0.79,-0.32 -0.28,0.37 c 3.41,4.64 6.96,12.17 2.23,16.92 q -0.39,0.39 -0.16,0.89 z"
     id="path17" />
  <path
     fill="#ffffff"
     d="m 24.256864,25.588574 c 2.19,-2.62 3.8,-12.63 7.58,-12 a 1.15,1.14 9.2 0 1 0.94,1.3 q -1.7,11.53 -3.68,22.83 c -0.55,3.16 0.73,5.6 0.66,8.84 a 0.46,0.47 58.7 0 0 0.88,0.21 q 1.32,-2.64 0.59,-5.53 -0.24,-0.95 0.59,-0.44 c 7.46,4.55 8.68,16.23 1.86,21.7 -5.45,4.37 -13.43,3.76 -17.96,-1.67 q -4.94,-5.92 -2.1,-14.64 a 1.05,1.05 0 0 1 2.02,0.08 c 0.68,2.84 1.9,7.5 6.02,6.17 q 0.67,-0.22 0.12,-0.65 -4.25,-3.29 -2.46,-8.44 0.19,-0.53 -0.38,-0.53 h -2.14 q -0.49,0 -0.85,-0.32 c -4.32,-3.79 -13.6000003,-22.61 -11.6500003,-27.93 q 0.17,-0.49 0.69,-0.49 1.9,-0.01 2.27,1.75 1.19,5.56 3.3100003,9.44 0.2,0.38 0.63,0.31 0.85,-0.15 0.55,-0.78 -1.19,-2.48 -3.2100003,-9.74 -0.57,-2.05 -3.26,-2.61 -0.54,-0.11 -0.54,-0.67 v -1.68 q 0,-0.4500001 0.41,-0.6500001 2.52,-1.21 3.48,1.5400001 2.4300003,6.99 5.0200003,11.56 0.23,0.42 0.69,0.28 l 0.33,-0.11 q 0.48,-0.15 0.24,-0.6 -2.64,-4.9 -4.45,-10.15 C 9.6968637,9.7785739 8.0668637,8.0585739 7.7268637,5.3985739 q -0.1,-0.75 0.66,-0.77 l 1.8100003,-0.06 q 0.55,-0.02 0.76,0.49 l 6.35,15.3400001 q 0.24,0.59 0.76,0.22 c 0.84,-0.61 -4.43,-12.5900001 -5.04,-14.1900001 q -0.19,-0.5 0.23,-0.83 c 1.03,-0.79 2.09,-0.18 2.64,0.89 q 4.07,7.9200001 8.22,15.8100001 0.26,0.49 0.16,1.03 l -0.4,2.09 q -0.15,0.8 0.38,0.17 z m 72.07,38.89 c -7.53,-2.12 -15.34,-5.63 -15.34,-14.88 q 0.01,-7.78 7.87,-11.32 0.47,-0.21 0.07,-0.54 l -1.01,-0.83 q -0.39,-0.33 -0.25,-0.82 3.41,-12.21 15.829996,-14.96 1,-0.22 0.12,-0.75 l -0.55,-0.32 q -0.71,-0.42 0.02,-0.8 4.42,-2.32 8.54,-0.11 0.4,0.23 0.74,0.55 0.86,0.82 0.57,1.46 -0.29,0.65 0.34,0.97 12.39,6.23 9.84,20.47 -0.09,0.52 0.24,0.91 c 5.18,6.22 4.18,15.04 -2.95,19.24 q -1.47,0.86 -6.75,2.52 -0.56,0.18 -0.27,0.7 c 0.31,0.54 2.8,0.23 3.73,0.79 q 0.75,0.46 0.14,1.09 l -1.64,1.68 q -0.46,0.47 0.2,0.48 c 8.34,0.13 17.72,10.83 20.91,17.57 1.83,3.87 1.53,8.47 -3.49,9.19 -17.95,2.56 -41.199996,-2.76 -58.169996,-9.1 a 0.9,0.9 0 0 1 -0.53,-1.14 q 3.98,-11.65 -3.5,-21.27 -0.32,-0.42 0.2,-0.53 c 4.38,-0.89 12.14,-2 15.99,0.71 0.59,0.42 3.84,3.05 4.33,2.44 q 0.25,-0.32 0,-0.63 l -1.55,-1.98 q -0.48,-0.62 0.22,-0.96 l 0.36,-0.17 q 0.39,-0.18 0.8,-0.03 2.35,0.9 4.86,0.9 1.96,-0.01 0.08,-0.53 z m 5.554996,-19.776 a 4.81,6.69 5.1 0 0 5.386,-6.236 4.81,6.69 5.1 0 0 -4.196,-7.091 4.81,6.69 5.1 0 0 -5.385996,6.235 4.81,6.69 5.1 0 0 4.195996,7.091 z m 12.87,1.667 a 4.69,6.62 8.3 0 0 5.596,-5.874 4.69,6.62 8.3 0 0 -3.685,-7.228 4.69,6.62 8.3 0 0 -5.597,5.874 4.69,6.62 8.3 0 0 3.685,7.228 z m -16.454996,3.339 c -0.92,-0.36 -1.07,-0.64 -1.08,-1.61 q -0.01,-1.04 -0.83,-0.4 l -1.68,1.33 q -0.58,0.46 0.13,0.67 c 7.439996,2.25 10.679996,11 19.569996,4.32 1.01,-0.76 5.23,-1.93 4.3,-3.39 q -0.28,-0.44 -0.72,-0.16 c -5.1,3.2 -14.23,1.35 -19.689996,-0.76 z"
     id="path18" />
  <path
     fill="#010101"
     d="m 101.88186,44.701574 a 4.81,6.69 5.1 0 1 -4.195996,-7.09 4.81,6.69 5.1 0 1 5.385996,-6.237 4.81,6.69 5.1 0 1 4.196,7.092 4.81,6.69 5.1 0 1 -5.386,6.236 z m -0.305,-9.653 a 1.13,1.12 44.8 0 1 1.59,0 q 3.54,3.48 0.53,7.83 -0.46,0.65 0.24,0.26 c 3.4,-1.93 2.46,-7.46 0.19,-9.62 q -0.42,-0.4 -0.99,-0.33 -4.309996,0.5 -4.079996,5.17 0.03,0.62 0.65,0.51 l 1.239996,-0.23 q 0.84,-0.16 0.39,-0.89 -0.93,-1.54 0.24,-2.7 z"
     id="path19" />
  <path
     fill="#ffffff"
     d="m 101.57686,35.048574 q -1.17,1.16 -0.24,2.7 0.45,0.73 -0.39,0.89 l -1.239996,0.23 q -0.62,0.11 -0.65,-0.51 -0.23,-4.67 4.079996,-5.17 0.57,-0.07 0.99,0.33 c 2.27,2.16 3.21,7.69 -0.19,9.62 q -0.7,0.39 -0.24,-0.26 3.01,-4.35 -0.53,-7.83 a 1.13,1.12 44.8 0 0 -1.59,0 z"
     id="path20" />
  <path
     fill="#010101"
     d="m 114.75086,46.368574 a 4.69,6.62 8.3 0 1 -3.685,-7.227 4.69,6.62 8.3 0 1 5.597,-5.874 4.69,6.62 8.3 0 1 3.685,7.228 4.69,6.62 8.3 0 1 -5.597,5.874 z m 0.696,-9.61 c 3.54,0.51 2.79,4.25 1.97,6.86 q -0.34,1.08 0.43,0.25 c 2.39,-2.58 2.14,-7.99 -1.83,-8.91 q -0.62,-0.14 -1.15,0.19 -2.94,1.87 -2.62,5.38 0.06,0.76 0.7,0.33 l 1.41,-0.95 q 0.47,-0.32 0.17,-0.8 -0.68,-1.1 0,-1.98 0.35,-0.46 0.92,-0.37 z"
     id="path21" />
  <path
     fill="#ffffff"
     d="m 114.52686,37.128574 q -0.68,0.88 0,1.98 0.3,0.48 -0.17,0.8 l -1.41,0.95 q -0.64,0.43 -0.7,-0.33 -0.32,-3.51 2.62,-5.38 0.53,-0.33 1.15,-0.19 c 3.97,0.92 4.22,6.33 1.83,8.91 q -0.77,0.83 -0.43,-0.25 c 0.82,-2.61 1.57,-6.35 -1.97,-6.86 q -0.57,-0.09 -0.92,0.37 z"
     id="path22" />
  <path
     fill="#275099"
     d="m 311.21686,57.288574 c -5.16,2.02 -12.43,10.75 -5.12,14.93 5.74,3.29 12.58,1.42 18.7,0.36 0.4,-0.0667 0.53,0.0933 0.39,0.48 l -4.25,11.58 c -0.13333,0.36667 -0.39,0.59333 -0.77,0.68 -11.67,2.79 -41.93,4.6 -40.14,-15.42 1.27,-14.16 16.27,-23.41 29.64,-25.94 8.62667,-1.626667 17.27,-1.576667 25.93,0.15 0.31756,0.06301 0.4968,0.402119 0.37,0.7 l -5.83,13.77 c -0.19333,0.44 -0.43,0.46667 -0.71,0.08 -4.12,-5.68 -12.44,-3.62 -18.21,-1.37 z m -121.43,-0.18 -10.47,28.52 c -0.0933,0.26667 -0.28333,0.40333 -0.57,0.41 l -17.57,0.11 c -0.34138,3e-4 -0.57844,-0.33983 -0.46,-0.66 l 15.03,-41.12 c 0.10667,-0.3 0.32,-0.453333 0.64,-0.46 7.22,-0.193333 14.43,-0.346667 21.63,-0.46 5.32667,-0.08 7.74333,2.623333 7.25,8.11 -0.42,4.64 -0.75333,9.27667 -1,13.91 -0.0333,0.56 0.10333,0.60333 0.41,0.13 l 13.77,-21.04 c 0.43469,-0.672067 1.18678,-1.072681 1.99,-1.06 7.30667,0.133333 14.58333,0.243333 21.83,0.33 1.13,0.02 3.51,-0.6 5.22,-0.12 0.38667,0.106667 0.51,0.346667 0.37,0.72 l -15.13,41.06 c -0.13846,0.37348 -0.49775,0.62099 -0.9,0.62 l -17.63,-0.04 c -0.24343,-0.001 -0.41339,-0.23826 -0.33,-0.46 l 10.17,-27.28 c 0.66,-1.773333 0.46333,-1.873333 -0.59,-0.3 l -18.4,27.49 c -0.22667,0.34 -0.54667,0.51333 -0.96,0.52 l -15.59,0.1 c -0.30356,9e-4 -0.54335,-0.25733 -0.52,-0.56 l 2.27,-28.37 c 0.005,-0.262484 -0.35517,-0.340686 -0.46,-0.1 z m 54.67,28.6 15.43,-41.91 c 0.042,-0.118886 0.15391,-0.198803 0.28,-0.2 l 19.98,-0.04 c 0.20585,0.0019 0.34863,0.205914 0.28,0.4 l -15.4,41.91 c -0.042,0.11889 -0.15391,0.1988 -0.28,0.2 l -20.01,0.04 c -0.20585,-0.002 -0.34863,-0.20591 -0.28,-0.4 z m 121.06,-13.92 -9.46,0.1 c -0.18014,0.006 -0.33865,0.12053 -0.4,0.29 l -4.96,13.6 c -0.0639,0.17629 -0.23251,0.2927 -0.42,0.29 h -18.68 c -0.30364,-0.003 -0.51353,-0.30455 -0.41,-0.59 l 15.26,-41.62 c 0.0639,-0.176285 0.23251,-0.292702 0.42,-0.29 h 18.69 c 0.30364,0.0025 0.51353,0.304546 0.41,0.59 l -5.29,14.32 c -0.10353,0.28545 0.10636,0.58749 0.41,0.59 l 9.5,-0.01 c 0.18383,-0.002 0.34734,-0.11717 0.41,-0.29 l 5.2,-14.6 c 0.058,-0.173402 0.21728,-0.292833 0.4,-0.3 l 18.88,-0.38 c 0.30787,-0.0045 0.525,0.300552 0.42,0.59 l -15.35,41.72 c -0.0639,0.17629 -0.23251,0.2927 -0.42,0.29 l -18.66,0.02 c -0.30364,-0.003 -0.51353,-0.30455 -0.41,-0.59 l 4.88,-13.14 c 0.105,-0.28945 -0.11213,-0.59446 -0.42,-0.59 z m 50.78,2.76 22.89,0.14 c 0.21791,0.007 0.36506,0.2253 0.29,0.43 l -3.91,10.74 c -0.0461,0.12596 -0.16587,0.20979 -0.3,0.21 l -42.82,0.23 c -0.22215,-3.5e-4 -0.37636,-0.22139 -0.3,-0.43 l 15.29,-41.8 c 0.0461,-0.125955 0.16587,-0.209791 0.3,-0.21 l 42.32,-0.12 c 0.22215,3.47e-4 0.37636,0.221391 0.3,0.43 l -3.96,10.44 c -0.0461,0.125955 -0.16587,0.209791 -0.3,0.21 h -22.99 c -0.13673,0.0017 -0.25728,0.0901 -0.3,0.22 l -1.4,4.11 c -0.0689,0.20941 0.0896,0.42416 0.31,0.42 h 21.32 c 0.22215,3.5e-4 0.37636,0.22139 0.3,0.43 l -3.61,9.86 c -0.0461,0.12596 -0.16587,0.20979 -0.3,0.21 h -21.82 c -0.13673,0.002 -0.25728,0.0901 -0.3,0.22 l -1.31,3.84 c -0.0676,0.2054 0.0838,0.41732 0.3,0.42 z m 55.61,-2.48 h 19.16 c 0.24358,-8.5e-4 0.41351,0.24118 0.33,0.47 l -4.89,13.29 c -0.0493,0.13514 -0.17621,0.22637 -0.32,0.23 l -39.47,0.02 c -0.24358,8.5e-4 -0.41351,-0.24118 -0.33,-0.47 l 15.37,-41.74 c 0.0493,-0.135139 0.17621,-0.226373 0.32,-0.23 l 19.33,-0.11 c 0.24358,-8.46e-4 0.41351,0.241185 0.33,0.47 l -10.16,27.6 c -0.0835,0.22882 0.0864,0.47085 0.33,0.47 z m 42.69,14 h -19.87 c -0.24358,8.5e-4 -0.41351,-0.24118 -0.33,-0.47 l 15.34,-41.8 c 0.0493,-0.135139 0.17621,-0.226373 0.32,-0.23 h 19.85 c 0.24358,-8.46e-4 0.41351,0.241185 0.33,0.47 l -15.32,41.8 c -0.0493,0.13514 -0.17621,0.22637 -0.32,0.23 z m 40.17,-28.31 -10.19,27.8 c -0.12667,0.36 -0.38,0.54 -0.76,0.54 l -16.29,-0.04 c -0.36667,0 -0.48667,-0.17333 -0.36,-0.52 5.06667,-13.79333 10.13333,-27.55 15.2,-41.27 0.23,-0.61 0.62,-0.96 1.24,-0.53 0.24,0.173333 0.50667,0.25 0.8,0.23 11.99333,-0.573333 19.61333,-0.61 22.86,-0.11 3.13333,0.486667 4.65,2.643333 4.55,6.47 -0.17333,7.22 -0.50667,14.37333 -1,21.46 -0.0328,0.29413 0.39185,0.37545 0.47,0.09 l 10.02,-27.67 c 0.13333,-0.38 0.40333,-0.57 0.81,-0.57 l 16.07,-0.1 c 0.38667,0 0.51333,0.18 0.38,0.54 l -15.14,41.48 c -0.12,0.32667 -0.35333,0.49 -0.7,0.49 l -27.94,0.07 c -0.48,0 -0.71,-0.24 -0.69,-0.72 l 1.14,-27.55 c 0.0467,-1.033333 -0.11,-1.063333 -0.47,-0.09 z"
     id="path23"
     sodipodi:nodetypes="cccccccccccccccccccccccccccccccccccccccccccccccccccccccccccccccccccccccccccccccccccccccccccccccccccccccccccccccccccccccccccccccccccccccccccccccc"
     style="fill:#000000;fill-opacity:0" />
  <path
     fill="#010101"
     d="m 98.296864,49.708574 c 5.459996,2.11 14.589996,3.96 19.689996,0.76 q 0.44,-0.28 0.72,0.16 c 0.93,1.46 -3.29,2.63 -4.3,3.39 -8.89,6.68 -12.13,-2.07 -19.569996,-4.32 q -0.71,-0.21 -0.13,-0.67 l 1.68,-1.33 q 0.82,-0.64 0.83,0.4 c 0.01,0.97 0.16,1.25 1.08,1.61 z m 13.679996,4.04 -8.56,-0.76 q -0.89,-0.08 -0.15,0.42 4.18,2.79 8.78,0.79 a 0.23,0.24 35.9 0 0 -0.07,-0.45 z"
     id="path24" />
  <path
     fill="#ffffff"
     d="m 103.41686,52.988574 8.56,0.76 a 0.23,0.24 35.9 0 1 0.07,0.45 q -4.6,2 -8.78,-0.79 -0.74,-0.5 0.15,-0.42 z m -87.639996,12.89 c 9.8,5.42 22.34,2.3 25.18,-9.13 a 0.38,0.38 0 0 1 0.72,-0.05 q 2.78,7.01 0.16,13 c -5.77,13.24 -24.25,9.45 -26.51,-3.5 q -0.11,-0.63 0.45,-0.32 z m 33.32,29.08 c 14.76,-4.46 19.67,-22.3 7.87,-32.73 q -0.58,-0.5 0.19,-0.48 c 8.47,0.2 14.77,7.91 15.4,15.52 1.07,12.84 -11.45,22.17 -23.47,18.05 a 0.19,0.19 0 0 1 0.01,-0.36 z"
     id="path25" />
  <path
     fill="#ffffff"
     d="m 37.676864,89.468574 c 13.23,-2.19 20.27,-14.71 12.97,-26.45 a 0.28,0.28 0 0 1 0.35,-0.41 c 18.83,7.73 5.97,37.499996 -13.39,27.27 q -0.56,-0.3 0.07,-0.41 z"
     id="path26" />
  <path
     fill="#ffffff"
     d="m 28.986864,81.088574 c 10.95,0.04 16.48,-7 17.46,-17.11 q 0.1,-1.04 0.71,-0.18 c 10.25,14.67 -8.02,30.02 -20.79,17.68 q -0.36,-0.35 0.14,-0.37 1.26,-0.03 2.48,-0.02 z M 140.57686,106.06857 c 0.38,-3.3 -0.74,-4.83 -2.05,-7.689996 q -0.23,-0.5 0.16,-0.89 c 4.73,-4.75 1.18,-12.28 -2.23,-16.92 q -0.51,-0.69 0.28,-0.37 c 11.23,4.62 12.04,17.92 4.93,26.339996 a 0.62,0.62 0 0 1 -1.09,-0.47 z m -3.09,1.21 H 53.986864 q -1.18,-3.5 -1,-7.01 0.02,-0.479996 0.51,-0.469996 11.81,0.19 18.61,-9.24 0.29,-0.41 0.76,-0.23 c 19.92,7.62 40.939996,11.339996 62.289996,9.5 q 0.51,-0.04 0.77,0.399996 1.89,3.28 1.56,7.05 z m 11.79,0.04 q -2.08,0.98 -3.83,-0.25 l 2.54,-4.43 a 0.38,0.38 0 0 1 0.71,0.15 z"
     id="path27" />
  <path
     fill="#fce306"
     d="m 50.236864,107.27857 h 87.249996 l 7.96,-0.21 c 1.16667,0.82 2.44334,0.90334 3.83,0.25 l 2.96,-0.04 c 110.7,-0.27333 221.4,-0.32333 332.1,-0.15 6.19,0.01 14.44,0.31 21.7,0.16 0.4,-0.0133 0.54,0.17334 0.42,0.56 l -3.01,9.69 c -0.10666,0.35334 -0.34666,0.53 -0.72,0.53 H 24.046864 c -0.3,0.34 -0.666667,0.38 -1.1,0.12 -0.238419,-0.13879 -0.347152,-0.42317 -0.26,-0.68 l 3.09,-9.39 c 0.173333,-0.52 0.533333,-0.78 1.08,-0.78 z"
     id="path28"
     sodipodi:nodetypes="cccccccccscccccc"
     style="fill:#000000;fill-opacity:1" />
</svg>
