<?xml version="1.0" encoding="UTF-8" standalone="no"?>
<svg
   version="1.1"
   viewBox="0 0 2420 2071"
   width="151.25"
   height="129.4375"
   id="svg14"
   sodipodi:docname="client.svg"
   inkscape:version="1.4.2 (f4327f4, 2025-05-13)"
   xmlns:inkscape="http://www.inkscape.org/namespaces/inkscape"
   xmlns:sodipodi="http://sodipodi.sourceforge.net/DTD/sodipodi-0.dtd"
   xmlns="http://www.w3.org/2000/svg"
   xmlns:svg="http://www.w3.org/2000/svg">
  <sodipodi:namedview
     id="namedview1"
     pagecolor="#ffffff"
     bordercolor="#000000"
     borderopacity="0.25"
     inkscape:showpageshadow="2"
     inkscape:pageopacity="0.0"
     inkscape:pagecheckerboard="0"
     inkscape:deskcolor="#d1d1d1"
     inkscape:zoom="5.0516129"
     inkscape:cx="72.155172"
     inkscape:cy="63.840996"
     inkscape:window-width="1920"
     inkscape:window-height="1001"
     inkscape:window-x="-9"
     inkscape:window-y="-9"
     inkscape:window-maximized="1"
     inkscape:current-layer="svg14" />
  <defs
     id="defs14" />
  <path
     d="m 1011,0 h 255 l 73,1 49,2 76,5 62,6 43,5 49,8 29,6 31,8 33,10 40,14 37,15 36,16 28,13 24,12 23,13 13,8 15,9 30,19 30,20 16,12 21,16 13,10 16,13 11,9 26,24 15,14 13,13 2,1 v 2 h 2 l 7,8 13,13 7,8 13,14 7,8 11,13 11,14 10,13 13,18 12,16 9,13 12,18 14,22 12,19 12,21 28,54 13,27 15,33 11,27 10,27 22,66 10,37 10,46 7,43 5,46 3,39 1,17 v 100 l -3,60 -5,47 -6,46 -6,30 -13,49 -11,35 -7,21 -15,43 -8,20 -13,28 -12,23 -13,25 -24,44 -7,12 -8,12 -9,14 -7,11 -8,12 -14,19 -18,26 -9,12 -8,11 -11,14 -20,25 -9,10 -8,10 -12,13 -7,8 -22,22 -8,7 -11,10 -8,7 -14,12 -15,14 -14,11 -17,13 -18,13 -13,9 -10,8 -15,10 -13,9 -15,10 -28,17 -17,10 -24,13 -25,12 -34,15 -37,15 -36,13 -39,12 -37,9 -38,8 -72,13 -43,6 -43,4 -52,3 -35,1 -102,1 h -92 l -1085,-1 -35,-1 -24,-2 -13,-4 -5,-3 v -2 l -4,-2 -7,-10 -6,-15 -1,-5 v -31 l 4,-22 6,-17 8,-12 9,-10 11,-7 7,-2 89,-2 250,-4 134,-1 185,-1 52,-1 31,-2 25,-4 3,-2 -5,-9 -14,-14 -17,-13 -16,-11 -19,-12 -28,-17 -19,-11 -24,-14 -19,-10 -10,-3 -7,-1 -20,-1 -40,-1 -142,-1 -136,-2 -38,-1 -9,-3 -5,-6 -2,-10 -1,-13 1,-40 2,-28 4,-15 8,-13 8,-9 10,-6 5,-2 6,-1 h 78 l 85,4 70,4 2,-3 -6,-15 -12,-25 -27,-54 -13,-28 -12,-25 -14,-32 -15,-37 -14,-36 -12,-33 -9,-24 -10,-32 -11,-42 -8,-33 -8,-41 -6,-40 -3,-31 -1,-20 v -62 l 3,-63 3,-40 5,-35 11,-56 11,-48 10,-37 16,-47 13,-34 15,-35 13,-30 12,-26 9,-17 9,-16 14,-28 1,-7 -16,-1 -31,-1 -169,-2 -120,-2 -59,-2 -54,-3 -19,-2 -10,-3 -4,-7 -3,-16 -3,-34 v -39 l 4,-15 5,-10 8,-9 16,-8 8,-3 15,-3 38,-3 37,-1 h 156 l 233,-1 36,-1 24,-2 13,-4 16,-8 11,-8 11,-9 11,-10 11,-9 14,-12 15,-13 11,-9 16,-13 11,-9 14,-11 13,-11 11,-9 10,-9 13,-10 20,-15 11,-7 10,-10 2,-5 -10,-1 -24,2 -45,2 -58,1 H 583 l -66,-1 -81,-2 -24,-1 -25,-3 -10,-3 -10,-9 -7,-10 -5,-15 -2,-9 V 87 l 4,-25 4,-15 5,-12 8,-13 7,-8 9,-5 9,-2 50,-2 92,-2 215,-2 z m 340,394 -33,3 -29,4 -45,9 -34,8 -29,9 -36,12 -27,11 -21,10 -18,10 -19,12 -12,8 -18,13 -19,14 -11,8 -10,8 -14,11 -10,9 -2,1 v 2 l -4,2 -13,13 -4,3 v 2 l -4,2 -43,43 -11,14 -10,13 -21,28 -7,10 -12,20 -12,18 -9,16 -11,24 -8,16 -8,19 -12,36 -11,35 -6,25 -5,29 -7,50 -3,35 -1,22 v 21 l 3,50 5,46 7,39 6,26 9,27 14,32 15,31 11,23 14,27 11,17 10,15 14,19 11,15 10,14 10,13 11,13 9,11 10,11 7,8 3,4 h 2 l 2,4 24,24 8,7 17,14 20,16 21,16 30,20 25,14 13,8 16,8 15,7 51,19 34,10 36,8 28,5 30,4 35,3 19,1 h 46 l 34,-2 36,-4 29,-5 33,-7 30,-8 39,-14 19,-8 24,-10 36,-19 21,-12 36,-22 14,-9 17,-12 12,-10 9,-7 14,-11 10,-9 8,-7 7,-6 v -2 l 4,-2 10,-10 8,-7 20,-20 8,-10 10,-14 13,-18 10,-13 10,-15 11,-16 9,-13 13,-22 8,-14 8,-16 10,-26 9,-21 10,-29 7,-25 12,-51 4,-27 2,-27 1,-21 v -72 l -3,-32 -5,-33 -7,-36 -9,-36 -16,-49 -10,-28 -10,-27 -12,-27 -13,-26 -14,-24 -11,-17 -14,-20 -8,-10 -11,-13 -7,-8 -10,-11 -7,-8 -23,-23 -8,-7 -10,-9 -12,-11 -11,-9 -11,-10 -24,-18 -18,-12 -18,-11 -24,-14 -27,-15 -40,-20 -24,-10 -25,-9 -30,-9 -38,-9 -31,-6 -24,-3 -52,-4 z"
     id="path1"
     style="fill:#20aac4;fill-opacity:1" />
  <path
     d="m 1471,561 h 12 l 21,5 36,12 31,11 21,9 24,13 15,9 11,6 16,10 18,13 14,10 19,14 14,12 15,14 12,12 7,8 9,10 13,17 8,13 13,26 5,14 -1,6 -5,5 -8,7 -11,6 -9,5 -20,8 -13,5 -40,20 -15,7 -20,8 -12,4 h -8 l -3,-1 -5,1 -18,-9 -17,-10 -10,-5 -12,-9 -10,-10 -16,-12 -27,-18 -16,-12 -11,-10 -8,-7 v -2 h -2 l -7,-8 -12,-18 -3,-11 -5,-37 v -37 l 1,-69 2,-16 4,-16 z"
     id="path2"
     style="fill:#20aac4;fill-opacity:1" />
  <path
     d="m 1316,1300 h 17 l 22,4 14,1 h 44 l 29,1 13,2 10,3 15,8 16,11 14,12 12,13 13,17 12,14 7,8 8,8 7,8 9,13 9,19 3,11 v 9 l -4,8 -9,10 -4,4 -6,2 v 2 l -13,5 -24,11 -23,7 -23,4 -49,5 -39,3 h -26 l -29,-2 -31,-3 -29,-5 -36,-9 -9,-1 -19,-6 -11,-6 -7,-6 -3,-1 -5,-5 h -2 l -2,-2 -2,-1 -3,-5 -2,-3 -1,-4 2,-4 h 2 l 2,-4 3,-5 6,-15 6,-12 6,-9 9,-14 5,-6 11,-9 12,-12 8,-13 9,-15 13,-18 6,-9 8,-8 10,-6 10,-4 z"
     id="path3"
     style="fill:#20aac4;fill-opacity:1" />
  <path
     d="m 920,970 h 9 l 28,7 38,12 26,8 18,7 18,6 16,8 12,11 15,15 9,11 10,15 8,16 5,14 8,29 5,31 2,22 v 16 l -3,23 -5,20 -5,13 -9,14 -12,14 -7,8 -12,16 -6,9 -9,15 -10,15 -4,7 -3,7 -3,1 -2,5 -6,9 -4,-1 -2,-3 -3,-1 -2,-3 -4,-2 v -2 l -4,-2 -10,-11 -7,-5 v -2 l -5,-2 -7,-8 -7,-7 -12,-16 -13,-20 -10,-18 -13,-29 -12,-27 -11,-30 -5,-17 v -4 l -2,-1 -2,-11 -4,-20 -2,-8 -3,-25 -2,-17 -2,-31 -1,-18 v -37 l 3,-15 3,-5 z"
     id="path4"
     style="fill:#20aac4;fill-opacity:1" />
  <path
     d="m 1264,569 h 9 l 11,1 10,4 3,3 4,15 3,26 7,80 2,26 -2,10 -5,12 -9,13 -4,5 h -2 l -2,4 -4,2 v 2 l -13,10 -12,9 -3,3 h -2 l -2,4 -10,10 -8,7 -11,8 -12,9 -15,11 -11,9 -11,7 -8,5 -16,6 -15,9 -6,2 -7,-1 -9,-6 -6,-2 -10,-3 -6,-1 v -2 l -7,-1 -1,-2 -7,1 -9,-6 -7,-2 -14,-7 v -2 l -3,1 -2,-1 v -2 l -10,-3 -36,-12 -20,-8 -7,-1 -1,-3 -4,-1 -2,-6 h 2 l 1,-6 6,-11 8,-13 6,-9 13,-17 10,-13 4,-6 7,-10 6,-8 8,-10 11,-12 8,-8 8,-7 17,-14 9,-8 11,-9 14,-11 17,-12 15,-10 19,-11 21,-10 41,-16 16,-6 11,-3 z"
     id="path5"
     style="fill:#20aac4;fill-opacity:1" />
  <path
     d="m 1835,966 6,2 9,4 10,5 3,4 3,15 4,40 -1,37 -3,27 -7,45 -5,23 -10,33 -8,22 -6,16 -10,18 -8,14 -12,19 -13,19 -12,17 -8,11 -3,4 h -2 l -2,4 -5,4 h -2 l -1,4 h -2 l -1,3 -9,9 -4,2 h -6 l -8,-7 -6,-5 -7,-8 -10,-9 -8,-10 -11,-17 -15,-25 -10,-18 -13,-26 -10,-25 -4,-13 -2,-10 v -21 l 5,-20 6,-17 3,-16 3,-17 5,-15 10,-19 9,-16 9,-11 11,-8 13,-8 26,-13 18,-10 19,-10 26,-11 19,-9 12,-4 z"
     id="path6"
     style="fill:#20aac4;fill-opacity:1" />
  <path
     d="m 1374,921 h 11 l 18,3 16,5 15,6 16,8 11,7 11,9 11,13 9,15 6,14 4,13 1,5 v 24 l -6,35 -5,17 -7,14 -9,12 -11,11 -5,4 -16,6 -26,6 -22,3 -13,1 h -21 l -18,-3 -12,-4 -16,-8 -10,-8 -8,-7 v -2 h -2 l -10,-14 -10,-18 -5,-13 -4,-17 -1,-8 v -21 l 2,-14 6,-23 6,-15 6,-11 8,-8 18,-12 17,-9 19,-10 13,-4 z"
     id="path7"
     style="fill:#20aac4;fill-opacity:1" />
  <path
     d="m 1068,859 2,1 z"
     id="path8" />
  <path
     d="M 1191,1480"
     id="path9" />
  <path
     d="M 1065,857"
     id="path10" />
  <path
     d="M 1762,831"
     id="path11" />
  <path
     d="M 985,826"
     id="path12" />
  <path
     d="M 967,818"
     id="path13" />
  <path
     d="M 962,808"
     id="path14" />
</svg>
