<?xml version="1.0" encoding="UTF-8" standalone="no"?>
<svg
   viewBox="0 0 1522.2999 66.101997"
   width="122.437"
   height="66.101997"
   fill="currentColor"
   version="1.1"
   id="svg42"
   sodipodi:docname="logo.svg"
   inkscape:version="1.4.2 (f4327f4, 2025-05-13)"
   xmlns:inkscape="http://www.inkscape.org/namespaces/inkscape"
   xmlns:sodipodi="http://sodipodi.sourceforge.net/DTD/sodipodi-0.dtd"
   xmlns="http://www.w3.org/2000/svg"
   xmlns:svg="http://www.w3.org/2000/svg">
  <defs
     id="defs42" />
  <sodipodi:namedview
     id="namedview42"
     pagecolor="#ffffff"
     bordercolor="#000000"
     borderopacity="0.25"
     inkscape:showpageshadow="2"
     inkscape:pageopacity="0.0"
     inkscape:pagecheckerboard="0"
     inkscape:deskcolor="#d1d1d1"
     inkscape:zoom="5.4280844"
     inkscape:cx="63.097766"
     inkscape:cy="4.3293358"
     inkscape:window-width="1920"
     inkscape:window-height="1001"
     inkscape:window-x="-9"
     inkscape:window-y="-9"
     inkscape:window-maximized="1"
     inkscape:current-layer="svg42" />
  <path
     d="m 941.41012,-360.90361 h 141.99998 l 36,1 32,3 39,6 28,7 18,5 11,5 18,6 20,9 22,12 22,13 12,9 15,10 13,11 10,8 7,7 8,7 7,7 7,8 12,13 8,10 9,12 9,15 8,11 11,20 20,40 8,24.000001 5,18.000002 3,13 4,21.000001 2,17 2,6.9999998 V 68.096394 l -3,21 -2,17.999996 -6,27 -7,20 -4,15 -9,22 -14,30 -11,19 -12,17 -10,15 -11,13 -12,14 -15,16 -12,12 -14,11 -7,7 -13,9 -14,10 -21,13 -16,8 -23,11 -27,11 -40,11 -12,3 -25,4 -27,3 -34,1 -96.9999,1 -216.00008,1 -211,-1 H 92.410123 l -25.999997,-2 -11,-4 -14,-12 -9,-11 -4,-8 -3,-8 -1,-12 1,-19 4,-12 9,-11 5,-6 14,-9 12,-4 598.999994,-1 9,-1 14,-7 9,-8 8,-11 3,-8 1,-6 v -15 l -3,-10 -7,-12 -6,-7 -11,-7 -7,-3 -13,-2 -22,-1 h -286 l -10,-1 -15,-8 -11,-9 -8,-9 -5,-11 -4,-13 v -17 l 1,-15 3,-5 4,-10 7,-10 5,-5.999996 11,-8 15,-7 6,-1 h 319 l 10,-5 11,-8 8,-9 5,-9 2,-5 v -25 l -4,-9 -5,-9.0000002 -4,-5.00000004 -10,-5.99999996 -9,-3.9999998 -15,-3 -281,-1 h -212 l -12,-2 -17,-9 -10,-9 -7,-9.000001 -5,-12 -3,-10 -1,-12.000002 v -13 l 2,-10.000001 7,-14 9,-11 11,-9 14,-7 8,-2 508,-1 11,-6 10,-7 7,-9 6,-11 2,-4 v -24 l -5,-13 -8,-10 -11,-7 -7,-4 -4,-1 -21,-1 -181,1 h -59 l -23,-2 -13,-4 -8,-5 -16,-16 -6,-12 -1,-20 v -12 l 2,-12 4,-8 9,-10 7,-7 9,-7 11,-3 8,-1 h 217 z m 139.99998,61 -36,4 -23,5 -26.99994,8 -22.00004,8 -23,10 -16,8 -18,10 -21,14 -13,10 -20,18 -15,16 -10,12 -8,11 -11,16 -10,17 -7,12 -13,28.000001 -5,16.000002 -6,19 -5,15 -6,38.0000007 -1,10.9999999 V 68.096394 l 5,33.999996 8,28 9,27 10,22 4,10 9,15 10,16 13,18 8,10 11,13 14,15 5,5 h 2 v 2 l 16,14 18,13 11,7 17,10 25,12 23,9 26.00008,8 31.9999,7 32,4 12,1 h 26 l 39,-5 24,-5 23,-6 28,-10 16,-7 17,-9 11,-6 20,-13 12,-9 17,-14 8,-7 19,-19 22,-28 10,-14 8,-13 11,-23 9,-19 10,-26 5,-16 5,-21.999992 4,-21.000004 4,-41 -1,-14 -4,-33 -5,-22 -7,-27.000001 -13,-35.000002 -8,-17.000001 -10,-19 -10,-17 -8,-12 -8,-9 -9,-11 -14,-15 -16,-16 -8,-7 -7,-6 -17,-12 -15,-10 -27,-15 -25,-12 -18,-7 -28,-8 -24,-5 -21,-3 -32,-3 z"
     id="path1" />
  <path
     d="m 1152.4101,-180.90361 9,1 25,9 14,6 24,15 26,20 4,5 v 8 l -5,5 -16,13.000001 -13,11 -15,14.000002 -5,6 h -2 l -2,4 -9,9 -8,14 -7,14.000001 -1,9 4,7.9999998 7,7.9999999 13,4.0000001 h 21 l 20,-4.0000001 18,-5.9999999 14,-4.9999998 13,-4 9,-4 6,-3 5,-1 h 11 l 4,18.9999998 2,16.0000002 2,21 -3,36 -4,22 -3,5 -4,1 -35,-13 -13,-5 -15,-4 -15,-3 -4,-1 h -33 l -11,4 -6,4 -4,13 3,10.999996 6,14 10,14 11,13 5,6 14,11 11,8 12,8 7,8 4,8 -1,5 -11,9 -15,10 -19,12 -13,8 -27,13 -11,4 -4,-1 -2,-5 -3,-25 -2,-7 -2,-14 -4,-16 -2,-5 -3,-9 -4,-11 -10,-19 -6,-8 -10,-6 -3,-1 h -10 l -9,5 -7,7 -10,16 -7,15 -3,11 -5,22 -2,15 -2,9 -1,22 -5,1 -27,-9 -19.99994,-9 -16.00004,-9 -21,-16 -16,-16 3,-5 9,-8 10,-8 10,-9 9,-8 5.00004,-4 7,-8 11.00004,-13 11.9999,-18 4,-10.999992 2,-8.000004 v -8 l -4,-6 -5,-4 -8.9999,-3 -10.00004,-1 h -18.00004 l -20,2 -5,2 -12,3 -19,7 -26,11 -8,2 -5,-10 -4,-21 V 8.0963938 l 2,-10.0000001 1,-3 1,-10.9999997 4,-8 4,-2 25,11 20,6.9999998 18,5.9999999 18,3.0000001 10,1 h 13.00004 l 18.00004,-4.0000001 7.9999,-4.9999999 4,-11.9999998 -1,-10 -3,-10.000001 -7,-12 -8.9999,-11 -7.00004,-8 -16.00004,-16.000002 -14,-11 -11,-10.000001 -10,-7 v -12 l 17,-17 19,-13 13.00004,-8 18.99994,-8 15,-4 h 13 l 3,3 4,24 6,31 3,8 1,8 8,16.000001 5,13.000002 11,12 10,6 7,1 9,-4 7,-7 8,-12 6,-13.000002 7,-22.000001 6,-20 4,-24 1,-13 -1,-4 4,-7 z m -67,169.000004 -16,7.9999997 -10,9.0000001 -7,12.0000002 -3,9 v 19 l 4,11 7,11 9,8 10,5 15,4 15,-3 9,-4 10,-6 7,-7 6,-10 4,-13 v -15 l -5,-13 -7,-11.0000002 -10,-8 -11,-4.9999998 -3,-1 z"
     fill="currentColor"
     id="path2" />
  <path
     d="m 1073.4101,-247.90361 h 52 l 21,3 16,3 20,6 24,10 16,8 15,8 15,10 14,10 10,8 9,7 v 2 l 4,2 12,12 7,8 13,16 10,13 13,20 10,17.000001 7,15.000002 6,17 5,17.000001 3,18 2,12.9999997 1,22.0000003 1,9 v 19 l -1,7 -1,20 -2,12 -4,19.999996 -4,15 -7,21 -9,21 -11,20 -11,17 -13,16 -7,8 -23,23 -10,8 -9,7 -17,12 -20,12 -18,10 -23,10 -20,7 -18,4 -31,3 h -19 l -38,-3 -26,-5 -17,-4 -24.99994,-8 -21.00004,-8 -14,-7 -16,-9 -12,-8 -12,-9 -10,-9 -13,-11 -13,-14 -9,-11 -13,-18 -8,-13 -6,-7 -8,-16 -9,-20 -6,-19 -6,-22.999992 -2,-5.000004 -4,-31 -1,-20 1,-31.0000002 4,-28.9999998 3,-8 3,-12.000001 6,-20 6,-15 12,-25.000002 6,-11.000001 10,-15 13,-19 15,-16 9,-10 15,-14 17,-13 12,-8 17,-10 19,-9 18.00004,-7 27.99994,-8 19,-4 18,-3 z m 2,32 -29,4 -20,5 -15.9999,5 -16.00004,6 -23.00004,11 -11,7 -10,7 -3,2 -6,2 -13,13 v 2 h -2 l -7,8 -10,12 -7,8 -10,14 -11,17.000001 -9,16.000002 -8,17 -8,20 -7,22.000001 -3,17.99999976 -1,4.00000004 V 61.096394 l 5,29 6,21.999996 7,19 14,27 9,15 12,16 11,13 13,13 8,7 9,8 13,9 14,9 22.00004,12 30.99994,12 14,4 21,4 28,3 h 39 l 23,-4 22,-5 14,-4 21,-8 23,-11 13,-8 14,-10 14,-12 14,-14 7,-9 8,-10 12,-18 7,-11 8,-16 5,-11 7,-17 7,-22.999996 5,-23 2,-28 1,-6 v -8 l -2,-2 -2,-23.0000002 -5,-23.9999998 -4,-15 -7,-19.000001 -10,-23.000002 -13,-24.000001 -7,-9 -18,-22 -13,-14 -30,-24 -11,-7 -11,-8 -19,-9 -27,-9 -23,-6 -33,-5 z"
     fill="currentColor"
     id="path3" />
  <path
     d="m 225.41012,-365.90361 h 26 l 17,6 8,6 7,7 9,12 5,10 4,16 v 11 l -5,23 -8,14 -9,10 -8,6 -15,6 -9,3 -6,1 h -9 l -17,-4 -12,-6 -12,-9 -7,-8 -7,-11 -4,-10 -1,-16 1,-21 5,-12 8,-12 9,-9 11,-7 14,-5 z"
     id="path4" />
  <path
     d="m 198.41012,76.096394 h 17 l 16,3 12,6 8,6 9,8.999996 7,11 6,16 v 29 l -6,15 -11,15 -16,13 -12,5 -22,3 h -8 l -12,-4 -12,-6 -8,-8 -8,-7 -9,-16 -5,-12 v -24 l 4,-10 3,-9 3,-6 8,-9.999996 8,-8 7,-4 10,-4 z"
     fill="currentColor"
     id="path5" />
  <path
     d="m 1489.4101,154.09639 h 1 l -1,9 -6,16 -7,16 -12,26 -11,19 -12,17 -10,15 -11,13 -12,14 -15,16 -12,12 -14,11 -7,7 -13,9 -14,10 -21,13 -16,8 -23,11 -27,11 -40,11 -12,3 -25,4 -27,3 -34,1 -96.9999,1 -216.00008,1 -211,-1 H 92.410123 l -25.999997,-2 -11,-4 -9,-8 h 3 l 8,5 11,4 17.999997,2 1038.999977,-1 31,-2 34,-5 25,-6 28,-8 25,-10 26,-12 26,-14 21,-14 15,-11 10,-8 10,-9 8,-7 3,-1 2,-4 h 2 l 2,-4 12,-12 7,-8 11,-13 14,-19 7,-11 8,-12 12,-22 12,-25 10,-26 z"
     fill="currentColor"
     id="path6" />
  <path
     d="m 941.41012,-360.90361 h 141.99998 l 36,1 32,3 39,6 28,7 18,5 11,5 -3,1 -26,-8 -28,-7 -28,-5 -29,-3 -27,-1 H 403.41012 l -16,2 -12,5 h -3 l 7,-6 11,-3 8,-1 h 217 z"
     fill="currentColor"
     id="path7" />
  <path
     d="m 117.41012,-75.903607 h 1 l 4,18 4,10 10,13.000001 10,8 16,8 5,1 15,1 h 477 l 16,2 11,4 8,4.9999998 -2,0.9999999 -13,-5.9999997 -15,-3 -281,-1 h -212 l -12,-2 -17,-9 -10,-9 -7,-9.000001 -5,-12 -3,-10 z"
     fill="currentColor"
     id="path8" />
  <path
     d="m 707.41012,286.09639 1,2 -6,8 -4,5 -10,7 -10,4 -4,1 -513,1 H 86.410123 l -17.999997,2 -12,4 -9,6 -6,5 -9,13 -5,14 -1,6 h -1 v -10 l 4,-12 9,-11 5,-6 14,-9 12,-4 598.999994,-1 9,-1 14,-7 9,-8 z"
     fill="currentColor"
     id="path9" />
  <path
     d="m 349.41012,-286.90361 2,4 4,10 7,9 9,9 12,6 12,3 8,1 h 266 l 13,3 9,6 -2,1 -9,-5 -4,-1 -21,-1 -181,1 h -59 l -23,-2 -13,-4 -8,-5 -16,-16 -6,-12 z"
     fill="currentColor"
     id="path10" />
  <path
     d="m 225.41012,-365.90361 h 26 l 17,6 8,6 7,7 9,12 5,10 4,16 v 11 l -5,23 -8,14 -9,10 -8,6 -15,6 -9,3 -6,1 h -9 l -17,-4 -12,-6 -12,-9 -7,-8 -7,-11 -4,-10 v -12 h 1 l 4,18 6,11 8,10 10,7 14,7 18,4 h 9 l 14,-4 17,-9 9,-8 7,-11 5,-12 3,-17 v -10 l -3,-14 -8,-15 -12,-13 -9,-6 -13,-5 -9,-2 h -12 l -12,2 -12,5 -11,7 -4,2 -2,4 -7,8 -7,14 -3,16 h -1 v -14 l 5,-12 8,-12 9,-9 11,-7 14,-5 z"
     fill="currentColor"
     id="path11" />
  <path
     d="m 1152.4101,-180.90361 9,1 25,9 14,6 24,15 26,20 4,5 v 8 l -5,5 -16,13.000001 -13,11 -15,14.000002 -5,6 h -2 l -2,4 -9,9 v -3 l 9,-10 11,-12.000002 7,-6 5,-5 14,-12.000001 17,-14 2,-2 v -5 l -13,-10 -9,-8 -14,-9 -21,-12 -25,-10 -18,-6 -6,40 -5,21 -11,33.000001 -7,13.000002 -4,3 2,-5 4,-7.000002 6,-14 6,-21.000001 5,-16 4,-24 1,-13 -1,-4 4,-7 z"
     fill="currentColor"
     id="path12" />
  <path
     d="m 167.41012,-143.90361 h 504 v 1 l -480,1 -23,1 -12,3 -13,8 -10,9 -8,11 -5,13.000001 -3,19 h -1 v -13 l 2,-10.000001 7,-14 9,-11 11,-9 14,-7 z"
     fill="currentColor"
     id="path13" />
  <path
     d="m 198.41012,76.096394 h 17 l 16,3 12,6 8,6 9,8.999996 7,11 6,16 v 29 l -6,15 -11,15 -16,13 -12,5 -22,3 h -8 l -12,-4 -12,-6 -8,-8 -8,-7 -4,-7 1,-2 7,9 3,3 v 2 l 4,2 6,5 10,5 16,4 h 16 l 12,-3 14,-7 9,-7 7,-8 9,-16 3,-13 v -18 l -5,-16 -6,-10 -9,-10.999996 -12,-9 -10,-4 -16,-3 -15,1 -11,3 -14,7 -12,10.999996 -6,9 -5,10 -1,-4 5,-10 8,-9.999996 8,-8 7,-4 10,-4 z"
     fill="currentColor"
     id="path14" />
  <path
     d="m 1222.4101,-181.90361 5,2 18,11 13,11 8,7 11,10 7,8 9,11 6,8 10,14.000001 14,25.000002 8,19 7,21.000001 6,25.9999998 3,22.0000002 v 13 l -2,-1 -2,-23.0000002 -5,-23.9999998 -4,-15 -7,-19.000001 -10,-23.000002 -13,-24.000001 -7,-9 -18,-22 -12,-13 -30,-24 -11,-7 z"
     fill="currentColor"
     id="path15" />
  <path
     d="m 980.41012,256.09639 6.00004,2 15.00004,6 20.9999,8 15,4 24,4 21,2 h 39 l 23,-4 22,-5 14,-4 21,-8 6,-2 -3,3 -11,5 -25,9 -30,7 -14,2 -13,1 h -25 l -27,-2 -24,-5 -26.9999,-9 -15.00004,-6 -13.00004,-7 z"
     fill="currentColor"
     id="path16" />
  <path
     d="m 772.41012,-46.903607 1,4 -6,38.0000007 -1,10.9999999 V 68.096394 l 5,33.999996 8,28 9,27 10,22 4,10 9,15 10,16 13,18 4,5 -1,2 -9,-11 -13,-19 -15,-25 -11,-24 -10,-26 -6,-21 -5,-20.999996 -4,-27 -1,-10 v -49 l 3,-27 5,-29.000001 z"
     fill="currentColor"
     id="path17" />
  <path
     d="m 356.41012,83.096394 319,1 v 1 l -5,1 h -315 l -18,7 -8,6 -8,6.999996 -6,9 -5,10 -1,-4 6,-11 9,-10.999996 11,-8 15,-7 z"
     fill="currentColor"
     id="path18" />
  <path
     d="m 1247.4101,-332.90361 7,1 16,6 23,11 23,13 14,9 14,10 12,8 13,11 10,8 7,7 8,7 7,7 7,8 12,13 8,10 9,12 4,7 -1,2 -10,-14 -11,-14 -11,-12 -9,-10 -13,-13 -13,-12 -14,-11 -16,-12 -23,-15 -19,-11 -23,-12 -31,-13 z"
     fill="currentColor"
     id="path19" />
  <path
     d="m 1251.4101,329.09639 2,1 -17,9 -25,10 -22,7 -28,7 -25,4 -21,2 h -32 l -33,-3 -27,-5 -13.9999,-4 3.9999,-1 34,7 38,4 h 26 l 39,-5 24,-5 23,-6 28,-10 16,-7 z"
     fill="currentColor"
     id="path20" />
  <path
     d="m 304.41012,154.09639 h 1 l 3,14 5,12 10,14 11,8 10,5 11,3 10,1 226,1 v 1 h -234 l -10,-1 -15,-8 -11,-9 -8,-9 -5,-11 -4,-13 z"
     fill="currentColor"
     id="path21" />
  <path
     d="m 818.41012,-22.903606 h 1 l -1,12 -3,32 v 29 l 3,29 5,23.999996 8,27 9,22 9,19 4,6 -1,2 -4,-5 -8,-16 -9,-20 -6,-19 -6,-22.999992 -2,-5.000004 -4,-31 -1,-20 1,-31.0000002 4,-28.9999998 z"
     fill="currentColor"
     id="path22" />
  <path
     d="m 1145.4101,-294.90361 14,1 25,6 24,7 22,9 19,9 24,14 15,10 11,8 6,5 h -3 l -14,-10 -15,-10 -27,-15 -25,-12 -18,-7 -28,-8 -24,-5 -6,-1 z"
     fill="currentColor"
     id="path23" />
  <path
     d="m 1301.4101,-24.903606 h 11 l 1,3 v 7 l -2,-4 -2,-3 -8,1 -15,6 -30,9.9999997 -22,6.0000001 -11,2 h -7 v -1 l 20,-4.0000001 18,-5.9999999 14,-4.9999998 13,-4 9,-4 6,-3 z"
     fill="currentColor"
     id="path24" />
  <path
     d="m 1207.4101,294.09639 3,1 -21,9 -20,7 -18,4 -31,3 h -19 v -1 l 33,-3 31,-6 15,-4 15,-5 z"
     fill="currentColor"
     id="path25" />
  <path
     d="m 1021.4101,82.096394 h 1 v 11 l -4,11.999996 -8.9999,16 -9,12 -12.00004,13 -9.00004,9 -8,7 -11,9 -2,-1 13,-12 13,-11 7.00004,-8 11.00004,-13 11.9999,-18 4,-10.999992 z"
     fill="currentColor"
     id="path26" />
  <path
     d="m 1472.4101,-129.90361 3,4 10,20 8,24.000001 5,18.000002 3,13 4,21.000001 v 10 h -1 l -4,-22.000001 -6,-27 -8,-26.000002 -10,-24.000001 -4,-8 z"
     fill="currentColor"
     id="path27" />
  <path
     d="m 704.41012,5.0963938 4,4 5,11.0000002 1,4 v 21 l -4,11 -7,11 -9,9 -15,8 -4,-1 10,-5 11,-8 8,-9 5,-9 2,-5 v -25 l -4,-9 -3,-6.0000004 z"
     fill="currentColor"
     id="path28" />
  <path
     d="m 1342.4101,79.096394 h 1 l -1,10 -5,18.999996 -9,24 -8,16 -9,17 -10,15 -2,1 2,-5 11,-17 8,-16 5,-11 7,-17 7,-22.999996 z"
     fill="currentColor"
     id="path29" />
  <path
     d="m 1224.4101,68.096394 11,1 21,5 18,6 25,10 2,2 -6,-1 -24,-9 -13,-5 -15,-4 -15,-3 z"
     fill="currentColor"
     id="path30" />
  <path
     d="m 1504.4101,89.096394 h 1 v 10.999996 l -5,26 -4,15 -5,13 -1,-4 7,-25 6,-27.999992 z"
     fill="currentColor"
     id="path31" />
  <path
     d="m 971.41012,-220.90361 3,1 -17,9 -19,12 -17,12 -4,2 4,-5 18,-13 15,-9 z"
     fill="currentColor"
     id="path32" />
  <path
     d="m 1187.4101,236.09639 3,1 -23,11 -11,4 -4,-1 v -2 l 18,-6 z"
     fill="currentColor"
     id="path33" />
  <path
     d="m 711.41012,-181.90361 1,3 -7,14 -9,10 -9,7 -6,3 -3,-1 17,-11 6,-7 7,-11 z"
     fill="currentColor"
     id="path34" />
  <path
     d="m 1221.4101,162.09639 5,2 16,11 7,8 -1,2 -8,-7 -11,-8 -8,-7 z"
     fill="currentColor"
     id="path35" />
  <path
     d="m 370.41012,-348.90361 2,1 -12,12 -6,10 -4,12 h -1 v -7 l 5,-11 9,-10 z"
     fill="currentColor"
     id="path36" />
  <path
     d="m 784.41012,-83.903609 1,3 -9,29.000002 -2,5 -1,-4 8,-26 z"
     fill="currentColor"
     id="path37" />
  <path
     d="m 1017.4101,-172.90361 4,1 -14.9999,6 -13.00004,5 -2,-1 14.00004,-7 z"
     fill="currentColor"
     id="path38" />
  <path
     d="m 1170.4101,-17.903606 2,2 3,5.9999998 7,7.9999999 13,4.0000001 v 1 h -7 l -8,-4.00000004 -7,-6.99999996 -3,-6.9999998 z"
     fill="currentColor"
     id="path39" />
  <path
     d="m 1185.4101,-54.903607 v 3 l -11,20.000001 -2,5 -1,-4 8,-16.000001 z"
     fill="currentColor"
     id="path40" />
  <path
     d="m 888.41012,-25.903606 10,4 11,5 -3,1 -19,-7 -1,-2 z"
     fill="currentColor"
     id="path41" />
  <path
     d="m 1315.4101,68.096394 h 1 l -1,10 -3,13 -4,4 -5,-1 v -1 l 5,-1 3,-5 z"
     fill="currentColor"
     id="path42" />
</svg>
