<svg xmlns="http://www.w3.org/2000/svg" xmlns:svg="http://www.w3.org/2000/svg" id="svg1" width="24" height="9" role="img" version="1.1" viewBox="0 0 24 9"><title id="title1">Ford</title><path id="path1" d="M 12,0.736 C 5.872,0.736 0.905,2.43 0.905,4.502 0.905,6.574 5.872,8.267 12,8.267 18.127,8.267 23.094,6.574 23.094,4.502 23.094,2.429 18.127,0.736 12,0.736 Z M 6.302,6.976 C 5.646,6.981 5.069,6.576 5.002,5.875 A 1.415,1.415 0 0 1 5.296,4.855 C 5.491,4.601 5.821,4.39 6.1,4.338 6.19,4.321 6.313,4.332 6.364,4.392 6.443,4.485 6.42,4.586 6.341,4.626 6.128,4.735 5.871,4.921 5.744,5.176 A 0.675,0.675 0 0 0 5.778,5.872 C 6.041,6.269 6.775,6.28 7.457,5.647 7.626,5.491 7.777,5.343 7.93,5.167 8.23,4.823 8.33,4.697 8.73,4.143 8.735,4.137 8.736,4.129 8.734,4.125 8.731,4.118 8.725,4.115 8.714,4.115 8.447,4.122 8.214,4.202 7.989,4.37 7.924,4.418 7.83,4.411 7.789,4.349 7.743,4.279 7.776,4.186 7.851,4.134 8.214,3.881 8.611,3.836 9.017,3.767 c 0,0 0.028,0.002 0.051,-0.03 C 9.235,3.524 9.36,3.332 9.538,3.116 9.716,2.896 9.948,2.696 10.124,2.544 10.37,2.332 10.528,2.261 10.688,2.174 10.731,2.152 10.683,2.125 10.67,2.125 9.774,1.957 8.843,1.739 7.953,2.069 7.337,2.299 7.066,2.787 7.196,3.114 7.289,3.345 7.593,3.384 7.879,3.244 A 1.55,1.55 0 0 0 8.49,2.7 C 8.577,2.566 8.76,2.662 8.661,2.895 8.401,3.506 7.904,3.992 7.298,4.013 6.782,4.029 6.449,3.65 6.45,3.182 6.452,2.258 7.48,1.65 8.56,1.56 c 1.301,-0.108 2.533,0.239 3.825,0.395 0.989,0.12 1.938,0.123 2.932,-0.106 0.118,-0.025 0.2,0.05 0.193,0.168 -0.01,0.172 -0.143,0.337 -0.47,0.516 -0.373,0.204 -0.763,0.266 -1.17,0.27 -0.984,0.008 -1.901,-0.376 -2.85,-0.582 0.002,0.041 0.012,0.091 -0.023,0.117 -0.525,0.388 -1,0.782 -1.318,1.334 C 9.668,3.685 9.674,3.697 9.692,3.696 9.969,3.681 10.217,3.674 10.475,3.654 10.52,3.65 10.522,3.639 10.518,3.606 a 0.64,0.64 0 0 1 0.2,-0.558 c 0.172,-0.153 0.387,-0.17 0.53,-0.06 0.16,0.126 0.147,0.353 0.058,0.523 a 0.63,0.63 0 0 1 -0.382,0.31 c 0,0 -0.03,0.006 -0.026,0.034 0.006,0.043 0.2,0.151 0.217,0.18 0.017,0.027 0.008,0.07 -0.021,0.102 a 0.123,0.123 0 0 1 -0.095,0.045 c -0.033,0 -0.053,-0.012 -0.096,-0.035 A 0.92,0.92 0 0 1 10.633,3.93 C 10.609,3.899 10.596,3.898 10.534,3.901 10.255,3.918 9.82,3.96 9.525,3.997 9.454,4.005 9.443,4.019 9.429,4.044 8.959,4.819 8.457,5.654 7.906,6.214 7.314,6.814 6.823,6.972 6.302,6.976 Z M 19.05,3.21 c -0.091,0.158 -1.849,2.834 -1.96,3.11 -0.035,0.088 -0.04,0.155 -0.004,0.204 0.092,0.124 0.297,0.051 0.425,-0.038 0.381,-0.262 0.645,-0.58 0.937,-0.858 0.017,-0.013 0.046,-0.018 0.065,0 0.043,0.04 0.106,0.091 0.15,0.137 a 0.04,0.04 0 0 1 0.002,0.057 5.873,5.873 0 0 1 -0.904,0.911 C 17.291,7.097 16.822,7.19 16.589,6.957 A 0.508,0.508 0 0 1 16.449,6.641 C 16.447,6.584 16.418,6.581 16.391,6.607 16.113,6.882 15.631,7.186 15.193,6.969 14.827,6.789 14.742,6.351 14.81,5.983 14.811,5.975 14.804,5.923 14.759,5.953 A 1.28,1.28 0 0 1 14.459,6.115 0.853,0.853 0 0 1 14.093,6.192 0.518,0.518 0 0 1 13.642,5.939 0.759,0.759 0 0 1 13.547,5.592 C 13.546,5.581 13.53,5.56 13.514,5.587 c -0.3,0.457 -0.579,0.899 -0.875,1.363 -0.016,0.022 -0.03,0.036 -0.06,0.037 l -0.587,0.001 c -0.036,0 -0.053,-0.028 -0.034,-0.063 0.104,-0.2 0.674,-1.03 1.06,-1.736 C 13.125,4.995 13.103,4.895 13.037,4.852 12.954,4.798 12.789,4.879 12.65,4.985 12.271,5.272 11.953,5.72 11.791,5.92 11.696,6.037 11.606,6.211 11.358,6.48 10.967,6.905 10.448,7.149 9.95,6.98 A 0.848,0.848 0 0 1 9.404,6.4 C 9.389,6.348 9.36,6.334 9.331,6.368 9.251,6.468 9.086,6.617 8.948,6.71 8.933,6.721 8.896,6.743 8.864,6.727 A 0.851,0.851 0 0 1 8.712,6.528 0.07,0.07 0 0 1 8.728,6.448 C 8.925,6.275 9.033,6.177 9.119,6.068 9.183,5.988 9.232,5.898 9.289,5.753 9.409,5.451 9.682,4.887 10.227,4.595 a 1.81,1.81 0 0 1 0.652,-0.219 c 0.1,-0.01 0.183,0.002 0.213,0.08 0.011,0.033 0.039,0.105 0.056,0.158 0.011,0.032 0.003,0.057 -0.035,0.071 -0.32,0.122 -0.643,0.311 -0.865,0.61 -0.253,0.338 -0.321,0.746 -0.152,0.98 0.123,0.17 0.322,0.2 0.514,0.139 0.29,-0.092 0.538,-0.363 0.666,-0.663 0.138,-0.329 0.16,-0.717 0.058,-1.059 -0.016,-0.059 -10e-4,-0.104 0.037,-0.136 0.077,-0.063 0.184,-0.112 0.215,-0.128 a 0.14,0.14 0 0 1 0.182,0.045 c 0.106,0.157 0.163,0.378 0.17,0.607 0.006,0.049 0.026,0.05 0.05,0.025 0.19,-0.202 0.366,-0.418 0.568,-0.58 0.185,-0.147 0.422,-0.267 0.643,-0.262 0.286,0.006 0.428,0.2 0.419,0.546 -10e-4,0.044 0.03,0.04 0.051,0.011 a 1.19,1.19 0 0 1 0.24,-0.264 c 0.198,-0.163 0.4,-0.236 0.611,-0.222 0.26,0.02 0.468,0.257 0.425,0.527 A 0.53,0.53 0 0 1 14.664,5.267 0.362,0.362 0 0 1 14.259,5.223 0.336,0.336 0 0 1 14.163,4.901 c 0.005,-0.025 -0.027,-0.048 -0.054,-0.02 -0.254,0.264 -0.273,0.606 -0.107,0.76 0.183,0.17 0.458,0.056 0.658,-0.075 0.366,-0.239 0.65,-0.563 0.979,-0.813 0.218,-0.166 0.467,-0.314 0.746,-0.351 a 0.87,0.87 0 0 1 0.454,0.052 c 0.2,0.081 0.326,0.25 0.342,0.396 0.004,0.043 0.036,0.048 0.063,0.01 0.158,-0.246 1.005,-1.517 1.075,-1.65 0.02,-0.041 0.044,-0.047 0.089,-0.047 h 0.606 c 0.035,0 0.051,0.02 0.036,0.047 z m -2.32,2.204 a 0.053,0.053 0 0 0 -0.003,0.04 c 0.003,0.02 0.03,0.04 0.056,0.05 0.01,0.003 0.015,0.01 0.004,0.032 -0.075,0.16 -0.143,0.252 -0.237,0.391 a 1.472,1.472 0 0 1 -0.3,0.325 c -0.178,0.147 -0.424,0.307 -0.628,0.2 -0.09,-0.047 -0.13,-0.174 -0.127,-0.276 0.004,-0.288 0.132,-0.584 0.369,-0.875 0.288,-0.355 0.607,-0.539 0.816,-0.438 0.216,0.103 0.148,0.354 0.05,0.55 z M 10.781,3.533 A 0.398,0.398 0 0 1 10.913,3.188 C 10.97,3.138 11.046,3.126 11.093,3.166 11.145,3.211 11.12,3.323 11.067,3.4 A 0.43,0.43 0 0 1 10.822,3.577 C 10.804,3.581 10.788,3.573 10.781,3.533 Z M 12,0 C 5.34,0 0,1.997 0,4.5 0,6.988 5.383,9 12,9 18.617,9 24,6.98 24,4.5 24,2.02 18.617,0 12,0 Z m 0,8.608 C 5.649,8.608 0.5,6.77 0.5,4.502 0.5,2.233 5.65,0.395 12,0.395 c 6.35,0 11.498,1.838 11.498,4.107 0,2.268 -5.148,4.106 -11.498,4.106 z"/></svg>