<svg xmlns="http://www.w3.org/2000/svg" xmlns:svg="http://www.w3.org/2000/svg" id="svg3" width="2426.487" height="1233.169" version="1.1" viewBox="0 0 187.088 95.08"><g id="g3" fill-rule="evenodd" clip-rule="evenodd" transform="translate(-2.834,-48.835689)"><path id="path2" d="M 12.167,143.916 V 113.417 H 2.834 v 30.499 z m 77.5,0 c 8.424,0 10.758,-3.876 10.758,-8.917 v -21.582 h -9.333 v 18.48 c 0,2.714 -0.648,4.911 -5.574,4.911 h -5.185 c -4.926,0 -5.574,-2.197 -5.574,-4.911 v -18.48 h -9.333 v 21.582 c 0,5.041 2.333,8.917 10.759,8.917 z m 89.495,0 c 8.426,0 10.76,-3.876 10.76,-8.917 v -21.582 h -9.334 v 18.48 c 0,2.714 -0.648,4.911 -5.574,4.911 h -5.184 c -4.926,0 -5.574,-2.197 -5.574,-4.911 v -18.48 h -9.334 v 21.582 c 0,5.041 2.334,8.917 10.76,8.917 z M 21.01,136.809 v 7.107 h 30.332 c 5.055,0 6.87,-3.747 7.259,-5.686 0.389,-1.938 -0.13,-6.203 -3.5,-7.496 l -22.749,-8.529 c -0.972,-0.452 -0.454,-1.68 0.713,-1.68 H 55.62 v -7.108 H 32.34 c -4.926,0 -9.074,1.81 -10.111,5.104 -0.938,2.98 -0.831,7.689 3.706,9.24 l 20.48,7.561 c 1.296,0.518 0.972,1.486 -0.129,1.486 H 21.01 Z m 123.84,0 v 7.107 h -29.037 c -5.055,0 -5.963,-2.843 -6.352,-4.781 -0.389,-1.938 0.131,-6.203 3.5,-7.495 l 20.805,-10.63 c 0.455,-0.193 0.486,-0.484 0.033,-0.484 h -23.561 v -7.108 h 23.592 c 4.926,0 9.035,0.212 10.5,3.425 1.297,2.844 0.648,7.173 -3.889,8.724 l -19.508,9.951 c -0.908,0.388 -1.037,1.292 0.064,1.292 h 23.853 z m 33.302,-81.463 c -10.57,-12.045 -31.498,-5.428 -42.775,4.135 -13.74,12.794 -15.943,27.786 -8.814,35.798 6.092,5.686 14.648,5.427 22.037,4.652 5.936,-1.141 12.504,-3.676 18.441,-8.357 4.824,-3.804 9.229,-9.025 12.537,-16.068 4.797,-10.209 -0.389,-18.997 -1.426,-20.16 z m -11.925,34.635 c -2.98,2.714 -22.199,14.645 -34.867,2.327 -10.5,-10.21 -1.168,-26.235 4.535,-31.017 1.037,-0.517 7,-7.366 18.02,-8.788 8.184,-1.056 15.127,1.174 19.295,5.834 2.174,2.431 3.592,5.524 4.037,9.157 1.296,10.597 -8.038,19.773 -11.02,22.487 z"/><path id="path3" d="m 139.945,61.745 v 26.17 h 10.953 V 75.25 c 0,-1.745 -0.324,-3.166 -2.334,-5.04 z m 24.698,0 v 26.17 H 153.69 V 75.25 c 0,-1.745 0.324,-3.166 2.334,-5.04 z"/></g></svg>