<svg xmlns="http://www.w3.org/2000/svg" xmlns:svg="http://www.w3.org/2000/svg" id="svg1" width="24" height="9.663" role="img" version="1.1" viewBox="0 0 24 9.663"><title id="title1">Jeep</title><path id="path1" d="m 4.1651,0 v 5.2011 c 0,0.6762 -0.444,1.0777 -1.1628,1.0777 -0.7185,0 -1.0992,-0.5283 -1.0992,-1.0992 V 4.2497 H 0 v 0.9514 c 0,0.972 0.296,2.7068 3.0235,2.7068 2.7272,0 3.1082,-1.8614 3.1082,-2.7488 V 0 Z m 4.9177,2.1562 c -1.7973,0 -2.6003,1.6485 -2.6003,3.0657 0,1.4168 0.9094,2.7912 2.7695,2.7912 1.6285,0.021 2.707,-1.0361 2.707,-1.8187 h -1.7977 c 0,0 -0.2113,0.5078 -0.8458,0.5078 -0.6343,0 -0.9934,-0.3596 -0.9934,-1.2265 h 3.6576 c 0,-2.7277 -1.3526,-3.3195 -2.897,-3.3195 z m 5.8471,0 c -1.7968,0 -2.6007,1.6485 -2.6007,3.0657 0,1.4168 0.9094,2.7912 2.7705,2.7912 1.628,0.021 2.7067,-1.0361 2.7067,-1.8187 h -1.7978 c 0,0 -0.2116,0.5078 -0.8454,0.5078 -0.6348,0 -0.9942,-0.3596 -0.9942,-1.2265 h 3.6574 c 0,-2.7277 -1.3523,-3.3195 -2.8965,-3.3195 z m 6.7435,0.0635 c -0.9132,0 -1.3186,0.4962 -1.3401,0.522 C 20.205,2.8955 20.0458,3.0582 20.0458,2.6635 V 2.3676 h -1.8193 v 7.295 h 1.8398 V 7.6533 c 0,-0.148 0.1478,-0.126 0.2543,0 0.1063,0.1277 0.5711,0.4443 1.3752,0.4443 C 23.155,8.0976 24,6.8291 24,5.0953 24,2.8538 22.5838,2.2196 21.6734,2.2197 Z M 9.2724,3.34 c 0.6766,0 0.972,0.5073 0.972,1.0365 H 8.3843 C 8.3843,3.8047 8.617,3.34 9.2725,3.34 Z m 5.8468,0 c 0.6767,0 0.9724,0.5073 0.9724,1.0365 H 14.231 c 0,-0.5718 0.2332,-1.0365 0.8883,-1.0365 z m 5.9204,0.296 c 0.9318,0 1.1,0.7189 1.1,1.4593 0,0.74 -0.1272,1.7124 -1.0141,1.7124 -0.8884,0 -1.1212,-0.5709 -1.1017,-1.6486 0.022,-1.0788 0.4441,-1.523 1.0158,-1.523 z m 2.2813,4.5664 a 0.5855,0.5855 0 0 0 -0.5856,0.5857 c 0,0.3233 0.2617,0.5856 0.5856,0.5856 0.3218,0 0.585,-0.2623 0.585,-0.5856 0,-0.3233 -0.2632,-0.5857 -0.585,-0.5857 z m 0,0.062 a 0.524,0.524 0 0 1 0.5236,0.5237 c 0,0.2884 -0.2346,0.5246 -0.5236,0.5246 a 0.5258,0.5258 0 0 1 -0.525,-0.5246 c 0,-0.289 0.2352,-0.5236 0.525,-0.5236 z m -0.2108,0.2024 v 0.6208 h 0.0725 V 8.8187 h 0.1764 l 0.1159,0.269 h 0.0806 L 23.4339,8.8004 c 0.0386,-0.0133 0.0514,-0.0227 0.072,-0.0447 0.0266,-0.0287 0.0434,-0.0739 0.0434,-0.115 0,-0.1034 -0.0796,-0.174 -0.195,-0.174 z m 0.0705,0.0676 h 0.1722 c 0.072,0 0.1177,0.041 0.1177,0.1045 0,0.072 -0.0485,0.1168 -0.1278,0.1168 h -0.1621 z"/></svg>