<svg xmlns="http://www.w3.org/2000/svg" xmlns:svg="http://www.w3.org/2000/svg" id="svg1" width="24" height="5.647" role="img" version="1.1" viewBox="0 0 24 5.647"><title id="title1">Kia</title><path id="path1" d="m 13.923,4.999 c 0,0.046 0.015,0.072 0.041,0.072 a 0.123,0.123 0 0 0 0.058,-0.024 l 7.48,-4.854 a 0.72,0.72 0 0 1 0.432,-0.13 h 1.644 C 23.83,0.063 24,0.231 24,0.483 v 3.139 c 0,0.38 -0.084,0.6 -0.42,0.801 l -1.994,1.2 a 0.137,0.137 0 0 1 -0.067,0.024 c -0.024,0 -0.048,-0.019 -0.048,-0.088 V 1.896 c 0,-0.043 -0.012,-0.071 -0.041,-0.071 A 0.113,0.113 0 0 0 21.372,1.849 L 15.906,5.4 a 0.733,0.733 0 0 1 -0.42,0.127 H 11.862 C 11.608,5.527 11.44,5.359 11.44,5.105 V 0.581 c 0,-0.033 -0.015,-0.064 -0.044,-0.064 A 0.118,0.118 0 0 0 11.339,0.541 L 7.732,2.704 C 7.696,2.728 7.686,2.745 7.686,2.762 c 0,0.014 0.008,0.029 0.032,0.055 l 2.577,2.575 c 0.034,0.034 0.058,0.06 0.058,0.089 0,0.024 -0.039,0.043 -0.084,0.043 H 7.94 C 7.757,5.524 7.616,5.498 7.517,5.399 L 5.955,3.839 A 0.067,0.067 0 0 0 5.907,3.815 0.103,0.103 0 0 0 5.859,3.83 L 3.249,5.4 A 0.72,0.72 0 0 1 2.826,5.522 H 0.425 C 0.168,5.524 0,5.354 0,5.103 v -3.08 c 0,-0.38 0.084,-0.6 0.422,-0.8 L 2.43,0.016 A 0.103,0.103 0 0 1 2.482,0 C 2.514,0 2.53,0.03 2.53,0.1 v 4.124 c 0,0.043 0.01,0.063 0.041,0.063 A 0.144,0.144 0 0 0 2.631,4.263 L 9.407,0.184 A 0.733,0.733 0 0 1 9.853,0.06 h 3.648 c 0.252,0 0.422,0.168 0.422,0.42 l -0.002,4.518 z"/></svg>