<svg xmlns="http://www.w3.org/2000/svg" xmlns:svg="http://www.w3.org/2000/svg" id="svg1" width="227" height="119" version="1.1" viewBox="0 0 227 119"><path id="path1" fill="#0C121C" fill-rule="evenodd" d="m 153.957,76.659 2.067,-5.63 h -9.501 l 1.472,-4.295 h 10.294 l 2.26,-6.211 h -19.43 l -0.27,0.79 0.463,0.456 c 0.502,0.485 0.48,1.06 0.048,2.312 l -8.094,23.36 h 18.158 l 2.193,-6.252 H 143.02 l 1.56,-4.53 h 9.376 z M 131.293,60.539 121.4,79.883 h -0.208 l -0.5,-19.344 h -8.277 l -0.323,0.698 0.712,0.429 c 0.684,0.481 0.875,0.97 0.964,2.312 l 1.12,23.473 h 9.224 l 14.881,-26.912 h -7.699 z m -74.212,3.47 -20.399,6.678 -2.49,6.805 h 17.99 L 54.524,71.08 H 42.052 l 14.156,-4.77 z m 19.32,6.299 c -0.465,1.15 -0.979,1.426 -1.647,1.698 -0.453,0.176 -1.404,0.24 -2.325,0.24 h -3.56 l 1.937,-5.561 h 4.302 c 1.288,0 1.814,0.666 1.831,1.427 0.008,0.484 -0.216,1.37 -0.537,2.196 z m -0.64,-9.769 H 64.089 l -0.236,0.698 0.472,0.46 c 0.499,0.49 0.48,1.067 0.043,2.312 L 56.213,87.45 h 7.453 l 3.188,-9.305 2.521,0.003 2.806,9.302 h 7.49 l -3.524,-9.52 c 2.044,-0.33 3.073,-0.911 4.098,-1.82 1.404,-1.28 2.378,-3.074 3.184,-5.717 1.175,-3.834 0.465,-6.024 -0.292,-7.15 -1.039,-1.547 -3.231,-2.705 -7.376,-2.705 z m 100,9.769 c -0.463,1.15 -0.982,1.426 -1.642,1.698 -0.461,0.176 -1.404,0.24 -2.32,0.24 h -3.559 l 1.922,-5.561 h 4.309 c 1.28,0 1.814,0.666 1.825,1.427 0.013,0.484 -0.217,1.37 -0.535,2.196 z m -0.648,-9.769 h -11.672 l -0.227,0.698 0.468,0.46 c 0.5,0.49 0.476,1.067 0.05,2.312 l -8.164,23.442 h 7.462 l 3.183,-9.302 h 2.523 l 2.806,9.302 h 7.482 l -3.513,-9.52 c 2.04,-0.33 3.064,-0.911 4.088,-1.82 1.408,-1.28 2.386,-3.074 3.189,-5.717 1.179,-3.834 0.468,-6.024 -0.287,-7.15 -1.039,-1.547 -3.234,-2.705 -7.388,-2.705 z m 15.305,36.117 c -20.476,10.533 -47.79,16.334 -76.92,16.334 -29.123,0 -56.432,-5.8 -76.911,-16.334 C 16.895,86.523 6.039,73.326 6.039,59.504 6.039,45.67 16.895,32.474 36.587,22.348 57.066,11.818 84.375,6.01 113.499,6.01 c 29.13,0 56.443,5.809 76.92,16.338 19.697,10.125 30.54,23.322 30.54,37.156 0,13.821 -10.843,27.019 -30.54,37.152 z m 2.772,-79.65 C 171.865,6.04 143.565,0 113.499,0 83.435,0 55.135,6.04 33.814,17.006 21.186,23.505 0,37.666 0,59.504 0,81.332 21.186,95.499 33.814,101.997 55.128,112.962 83.427,119 113.5,119 c 30.072,0 58.371,-6.038 79.69,-17.003 12.63,-6.498 33.81,-20.66 33.81,-42.493 0,-21.842 -21.182,-36 -33.81,-42.498 z m -5.64,74.127 c -22.033,11.33 -49.435,15.635 -74.051,15.635 -24.615,0 -52.012,-4.305 -74.049,-15.635 -11.662,-6 -27.16,-17.061 -27.16,-31.63 0,-14.58 15.496,-25.63 27.16,-31.628 22.037,-11.329 49.432,-15.637 74.049,-15.637 24.616,0 52.018,4.3 74.05,15.637 11.67,5.998 27.163,17.046 27.163,31.629 0,14.573 -15.496,25.628 -27.163,31.629 z m 1.143,-65.468 C 166.323,14.152 138.472,9.746 113.499,9.746 c -24.974,0 -52.82,4.41 -75.196,15.919 -12.565,6.46 -28.513,18.12 -28.513,33.839 0,15.707 15.95,27.371 28.513,33.84 22.377,11.501 50.229,15.911 75.196,15.911 24.973,0 52.824,-4.403 75.194,-15.912 12.57,-6.468 28.517,-18.132 28.517,-33.84 0,-15.718 -15.943,-27.377 -28.517,-33.838 z m -86.854,48.808 c -0.928,2.644 -1.656,4.347 -2.73,5.47 -0.845,0.883 -1.958,1.516 -4.527,1.516 -2.013,0 -3.133,-0.818 -3.133,-2.369 -0.013,-1.002 0.258,-2.522 1.336,-5.476 0.93,-2.643 1.656,-4.346 2.734,-5.472 0.834,-0.88 1.954,-1.516 4.522,-1.516 2.012,0 3.131,0.818 3.129,2.363 0.019,1.012 -0.253,2.532 -1.33,5.484 z m -0.431,-14.265 h -0.857 c -5.096,0 -8.004,1.368 -10.394,3.891 -2.97,3.13 -5.761,11.584 -5.706,16.06 0.055,4.559 3.02,7.72 9.249,7.72 h 0.91 c 5.108,0 8.018,-1.368 10.406,-3.892 2.97,-3.134 5.702,-11.586 5.648,-16.055 -0.06,-4.56 -3.023,-7.724 -9.256,-7.724 z M 47.7,54.718 66.148,54.714 68.377,48.299 H 57.653 l 7.086,-20.49 h -9.251 l -0.232,0.694 0.463,0.458 c 0.502,0.49 0.484,1.068 0.048,2.315 z m 48.603,-0.01 h 6.781 l 5.911,-17.41 3.46,17.41 h 6.785 l 9.25,-26.908 -7.093,0.01 -4.94,14.626 -2.822,-14.626 h -9.558 l -0.233,0.693 0.468,0.458 c 0.502,0.49 0.478,1.068 0.05,2.315 l -8.059,23.431 z m 41.945,-20.516 h 2.954 c 2.013,0 3.123,0.67 3.15,2.223 0.015,1 -0.253,2.368 -1.298,5.321 -0.922,2.639 -1.658,4.168 -2.708,5.29 -0.839,0.881 -1.957,1.273 -4.525,1.273 h -2.468 z m -6.485,-2.916 -8.07,23.442 h 11.909 c 5.105,0 8.016,-1.124 10.383,-3.648 2.964,-3.123 5.676,-11.25 5.587,-15.722 -0.087,-4.565 -3.048,-7.538 -9.274,-7.538 h -10.822 l -0.225,0.693 0.47,0.458 c 0.497,0.49 0.478,1.068 0.042,2.315 z m 44.935,6.183 h -17.986 l -2.342,6.407 h 12.465 l -14.158,4.783 -0.874,2.293 20.399,-6.678 z M 86.943,35.248 h 0.245 l 0.127,8.128 H 82.338 Z M 68.06,54.708 h 7.846 l 3.4,-5.947 h 8.126 l 0.08,5.946 h 7.121 L 93.097,27.81 h -10.66 l -0.237,0.693 0.344,0.342 c 0.562,0.547 0.33,1.336 -1.745,4.614 L 68.06,54.707 Z" style="fill:#000;fill-opacity:1"/></svg>