<?xml version="1.0" encoding="UTF-8" standalone="no"?>
<svg
   role="img"
   viewBox="0 0 24 19.204"
   version="1.1"
   id="svg1"
   sodipodi:docname="mazda.svg"
   width="24"
   height="19.204"
   inkscape:version="1.4.2 (f4327f4, 2025-05-13)"
   xmlns:inkscape="http://www.inkscape.org/namespaces/inkscape"
   xmlns:sodipodi="http://sodipodi.sourceforge.net/DTD/sodipodi-0.dtd"
   xmlns="http://www.w3.org/2000/svg"
   xmlns:svg="http://www.w3.org/2000/svg">
  <defs
     id="defs1" />
  <sodipodi:namedview
     id="namedview1"
     pagecolor="#ffffff"
     bordercolor="#000000"
     borderopacity="0.25"
     inkscape:showpageshadow="2"
     inkscape:pageopacity="0.0"
     inkscape:pagecheckerboard="0"
     inkscape:deskcolor="#d1d1d1"
     inkscape:zoom="32.625"
     inkscape:cx="12"
     inkscape:cy="9.6091954"
     inkscape:window-width="1920"
     inkscape:window-height="1001"
     inkscape:window-x="-9"
     inkscape:window-y="-9"
     inkscape:window-maximized="1"
     inkscape:current-layer="svg1" />
  <title
     id="title1">Mazda</title>
  <path
     d="m 11.999,10.478 c -0.036,0 -0.105,-0.046 -0.222,-0.26 A 7.531,7.531 0 0 0 9.802,7.865 8.255,8.255 0 0 0 7.7,6.667 17.945,17.945 0 0 0 7.355,6.531 C 6.343,6.131 5.294,5.718 4.32,5.154 A 8.982,8.982 0 0 1 4,4.964 C 4.194,4.624 4.42,4.299 4.67,4.002 A 6.055,6.055 0 0 1 5.923,2.871 7.126,7.126 0 0 1 7.541,2.065 c 1.218,-0.434 2.677,-0.647 4.458,-0.649 1.783,0.002 3.241,0.215 4.459,0.65 a 7.097,7.097 0 0 1 1.619,0.805 c 0.471,0.319 0.892,0.699 1.253,1.13 0.25,0.298 0.475,0.623 0.67,0.963 -0.103,0.064 -0.212,0.129 -0.32,0.192 -0.976,0.564 -2.023,0.977 -3.037,1.376 l -0.345,0.136 a 8.26,8.26 0 0 0 -2.1,1.198 7.519,7.519 0 0 0 -1.975,2.354 c -0.117,0.213 -0.187,0.259 -0.224,0.259 m 0,7.072 C 10.455,17.549 9.201,17.422 8.169,17.164 7.156,16.912 6.314,16.524 5.593,15.976 A 5.792,5.792 0 0 1 4.201,14.439 7.607,7.607 0 0 1 3.391,12.671 10.298,10.298 0 0 1 2.924,9.688 c 0,-0.674 0.047,-1.313 0.135,-1.901 1.106,0.596 2.153,0.895 3.08,1.16 l 0.215,0.06 c 1.29,0.371 2.314,0.857 3.135,1.488 0.475,0.368 0.89,0.793 1.23,1.264 0.369,0.508 0.663,1.088 0.877,1.725 0.096,0.289 0.2,0.468 0.403,0.468 0.207,0 0.308,-0.18 0.405,-0.468 a 6.124,6.124 0 0 1 2.107,-2.988 c 0.82,-0.632 1.845,-1.118 3.135,-1.489 l 0.216,-0.06 c 0.926,-0.265 1.973,-0.564 3.078,-1.16 0.09,0.589 0.136,1.227 0.136,1.9 0,0.458 -0.046,1.664 -0.465,2.984 a 7.626,7.626 0 0 1 -0.809,1.768 5.789,5.789 0 0 1 -1.396,1.537 c -0.723,0.548 -1.565,0.936 -2.574,1.188 -1.035,0.258 -2.288,0.385 -3.833,0.387 M 21.691,2.995 C 19.782,0.945 16.701,0.005 11.999,0 7.299,0.005 4.218,0.944 2.309,2.994 0.89,4.515 0,6.62 0,9.476 c 0,1.579 0.39,5.6 3.564,7.676 1.9,1.242 4.354,2.046 8.435,2.052 4.083,-0.006 6.536,-0.81 8.437,-2.052 C 23.609,15.076 24,11.054 24,9.476 24,6.628 23.103,4.508 21.69,2.993 Z"
     id="path1" />
</svg>
