<svg xmlns="http://www.w3.org/2000/svg" xmlns:svg="http://www.w3.org/2000/svg" id="svg1" width="2500" height="700" version="1.1" viewBox="10.9 324.9 885.2 68.156"><path id="path1" d="m 12.615601,239.60403 c -0.3,0.5 -0.6,22 -0.5,47.7 0,43.1 0.2,46.9 1.7,48.1 1.3,0.9 5.3,1.2 14.3,1 l 12.5,-0.3 0.3,-14.9 c 0.1,-9 0.7,-15.5 1.4,-16.3 0.8,-1 7,-1.3 28.5,-1.3 27.2,0 27.4,0 29.599999,2.3 3,3.1 14.4,16 19.7,22.2 7.3,8.7 6.7,8.5 23.3,8.5 11.9,0 14.7,-0.3 14.7,-1.4 0,-0.8 -5,-7.6 -11,-15.2 -6.1,-7.7 -10.9,-14.5 -10.8,-15.1 0.2,-0.7 3,-3.4 6.3,-6.1 3.3,-2.6 6.4,-5.7 7,-6.9 0.6,-1.1 1.5,-2.7 2.1,-3.4 0.6,-0.8 1.9,-4 2.8,-7.2 1.7,-5.6 1.7,-6.1 0,-13 -3.3,-13.2 -9.2,-21.7 -17.3,-25 -12.1,-4.8 -10.5,-4.7 -68.899999,-4.7 -34.3,0 -55.3,0.4 -55.7,1 z m 109.899999,26.1 c 3.5,4.1 3.4,8.3 -0.3,12 l -3,2.9 -38.299999,-0.2 -38.3,-0.3 -0.3,-8.8 -0.3,-8.7 H 119.9156 Z m 128.3,-24.8 c -1.2,1.3 -6,7.9 -10.7,14.7 -12,17.3 -16.7,24.1 -24.4,35 -5.2,7.4 -20.5,29.2 -29,41.5 -0.7,0.9 -0.5,1.9 0.4,2.9 1.1,1.4 3.5,1.6 16.9,1.4 l 15.6,-0.3 6.5,-9.8 6.5,-9.7 37,0.2 37,0.3 4.7,6.5 c 2.6,3.6 6,8 7.6,9.7 l 2.9,3.3 h 14.7 c 11.8,0 14.6,-0.3 14.6,-1.4 0,-0.8 -2.8,-5.3 -6.2,-10 -7.9,-10.9 -16.6,-23.2 -25.7,-36.1 -3.9,-5.5 -7.6,-10.8 -8.3,-11.7 -0.7,-1 -3.3,-4.7 -5.8,-8.3 -2.5,-3.6 -7.5,-10.6 -11.2,-15.7 -3.8,-5 -6.8,-9.4 -6.8,-9.8 0,-0.3 -0.9,-1.6 -2,-2.8 -2,-2.1 -2.9,-2.2 -17.1,-2.2 -14.4,0 -15.1,0.1 -17.2,2.3 z m 26,32.9 c 2.8,4 7,10.3 9.6,14 2.5,3.6 4.3,6.9 4,7.2 -0.8,0.8 -39.8,0.8 -40.6,0 -0.3,-0.3 1.5,-3.6 4,-7.2 2.6,-3.7 6.8,-10 9.6,-14 3,-4.4 5.6,-7.2 6.7,-7.2 1.1,0 3.7,2.8 6.7,7.2 z m 101,-34.5 c -0.4,0.3 -0.7,21.9 -0.7,47.9 0,42 0.2,47.4 1.6,48.9 1.3,1.3 3.7,1.5 13.8,1.3 l 12.1,-0.3 0.5,-34 c 0.5,-31.7 0.8,-36.5 2.9,-36.5 0.8,0 5.3,3.4 12.6,9.5 2.2,1.9 6,5 8.5,7 2.5,1.9 8,6.3 12.3,9.8 4.3,3.4 10.7,8.4 14.1,11.2 12.1,9.6 21.1,16.9 21.6,17.5 0.3,0.3 4.8,4 10.1,8.3 l 9.6,7.7 h 15.4 c 10.7,0 15.9,-0.4 16.7,-1.2 0.9,-0.9 1.2,-12.8 1.2,-47.3 v -46.2 l -2.3,-2.1 c -2.1,-2 -3.4,-2.2 -13.9,-2.2 -6.4,0 -12.3,0.3 -13.2,0.6 -1.4,0.5 -1.6,4.2 -1.6,31 0,26.2 -0.2,30.5 -1.5,31 -0.9,0.4 -4.3,-1.6 -8.7,-5.2 -4,-3.3 -11.3,-9.2 -16.3,-13.3 -4.9,-4 -11.2,-9.1 -14,-11.3 -2.7,-2.2 -6.8,-5.5 -9,-7.3 -4.4,-3.8 -9.3,-7.7 -20.5,-16.4 -4.2,-3.2 -8.1,-6.6 -8.9,-7.5 -1.2,-1.4 -4.1,-1.6 -21.6,-1.6 -11.1,0 -20.5,0.3 -20.8,0.7 z m 207.8,1.4 c -6.1,2.1 -10.7,6.4 -13.5,12.6 -2,4.5 -2.1,6.4 -2.1,33.2 v 28.5 l 3.1,6.2 c 2.3,4.7 4.2,7 8.3,9.8 2.9,2 6,3.6 6.9,3.6 0.9,0 2,0.4 2.3,1 0.4,0.6 18,1 49.4,1 54.7,0 51.8,0.4 59.6,-7.5 6.3,-6.3 7.5,-10.9 7.5,-29.5 0,-14 -0.2,-15.9 -1.8,-17.4 -1.7,-1.5 -5.6,-1.6 -39.8,-1.4 l -37.9,0.3 -0.3,8.6 c -0.2,6.9 0.1,9 1.3,10.3 1.4,1.4 5,1.6 26.6,1.6 20.7,0 25.1,0.2 25.5,1.4 0.6,1.7 -1,5.2 -3.9,8.3 l -2,2.3 h -37.8 c -33.8,0 -37.8,-0.2 -39,-1.7 -1.1,-1.2 -1.4,-6 -1.4,-20.7 0,-18.5 0.1,-19.2 2.3,-22.1 5,-6.4 5.2,-6.4 43.3,-6.5 38.1,0 36.8,-0.2 38.4,6.3 1,4 3.2,4.7 14.2,4.7 10.9,0 12.3,-0.6 12.3,-5.4 0,-10.2 -9.3,-24.6 -17,-26.2 -1.4,-0.3 -4.1,-1 -6,-1.5 -2.1,-0.6 -22,-1.1 -48.5,-1.2 -39.4,-0.2 -45.6,0 -50,1.4 z m 190.5,-1.1 -25.5,0.5 -0.3,47 c -0.2,43.3 -0.1,47.1 1.5,48.2 1.3,1 15.7,1.3 63.9,1.3 55.8,0 62.2,-0.2 62.8,-1.6 1.3,-3.4 0.6,-16.9 -1,-19.2 l -1.5,-2.2 h -47.4 c -45.9,0 -47.5,-0.1 -48.5,-1.9 -1.4,-2.7 -1.3,-8.4 0.3,-10.4 1.1,-1.5 5.1,-1.7 42.2,-1.9 l 41,-0.3 0.3,-9.4 c 0.2,-6 -0.1,-9.8 -0.9,-10.7 -0.9,-1.2 -8.2,-1.4 -41.9,-1.4 -45.2,0 -42,0.5 -42,-6.6 0,-2 0.5,-4.4 1,-5.5 1,-1.8 2.6,-1.9 49.4,-1.9 43.2,0 48.5,-0.2 49,-1.6 0.3,-0.9 0.6,-5.2 0.6,-9.7 0,-7.4 -0.3,-8.5 -2.5,-11 l -2.6,-2.7 -36.2,0.2 c -19.9,0.1 -47.7,0.5 -61.7,0.8 z m -763.999999,143.2 v 47.8 c -0.1,42.3 0.1,45.6 1.7,46.8 1.3,0.9 5.3,1.2 14.3,1 l 12.5,-0.3 0.5,-16 c 0.3,-8.8 0.9,-16.6 1.3,-17.3 0.6,-0.9 7.4,-1.2 28.2,-1.2 h 27.4 l 9.299999,10.7 c 5.1,5.9 12.2,13.8 15.8,17.5 l 6.6,6.8 h 14.6 c 8.1,0 14.9,-0.4 15.2,-0.9 0.3,-0.5 -1,-2.8 -2.9,-5.2 -1.9,-2.4 -6.9,-8.8 -11,-14.1 -4.1,-5.3 -7.9,-9.9 -8.5,-10.3 -1.8,-1.1 -1.1,-4.4 1.2,-5.6 1.3,-0.7 2.9,-1.8 3.6,-2.5 0.7,-0.8 2.1,-1.9 3,-2.6 3.5,-2.5 7.2,-8.6 9.2,-14.9 2,-6.2 2.1,-6.6 0.4,-13.9 -2.6,-11.3 -6.7,-18.1 -13.7,-22.8 -7.7,-5.2 -8.2,-5.2 -70.599999,-5.2 h -58.1 z m 110.899999,23.4 c 3,3.8 2.7,8 -0.8,11.5 l -3,2.9 -38.299999,-0.2 -38.3,-0.3 -0.3,-8.3 -0.3,-8.2 H 121.0156 Z m 88.5,-23.8 c -4.8,2 -9.6,5.8 -11.5,9.3 -3.5,6.4 -3.9,9.3 -3.9,35.6 0,28.9 0.8,34.7 5.7,41.2 3.3,4.4 4.7,5.5 9.9,8.1 4,2 5.5,2 58.5,1.7 58.3,-0.3 57.2,-0.2 64.6,-5.5 1.7,-1.2 4.2,-3.9 5.5,-6 2.3,-3.7 2.3,-4 2.3,-35.2 0,-29.6 -0.1,-31.7 -2,-35 -2.7,-4.8 -7.4,-9.9 -10.9,-11.7 -7.9,-4.1 -10.1,-4.3 -63.1,-4.2 -45.6,0 -51.4,0.2 -55.1,1.7 z m 101.4,24.2 c 2.1,2 2.2,2.8 2.2,21.4 0,17.6 -0.2,19.6 -1.9,21.7 l -1.9,2.4 -40.6,0.3 c -27.4,0.2 -41.3,-0.1 -42.6,-0.8 -1.9,-1 -2,-2.1 -2,-22 0,-19.7 0.1,-21.1 2,-23 1.9,-1.9 3.3,-2 42.3,-2 39.2,0 40.4,0.1 42.5,2 z m 58.2,-24.6 c 0,1.3 3.4,6.6 12,18.5 13,18 19.9,27.8 24,33.7 2.5,3.6 5,7.1 5.5,7.7 0.6,0.7 2.4,3.2 4.1,5.7 7,10.3 15.9,22.8 19.1,26.7 l 3.4,4.3 h 30.5 l 8.2,-11.3 c 8.7,-12.1 12.7,-17.6 25.8,-36.2 12.9,-18.1 21.3,-29.9 27.7,-38.7 8.5,-11.7 8.4,-11.8 -11.2,-11.8 -17.3,0 -17.3,0 -21.4,6.5 -1.4,2.2 -5.2,7.7 -8.4,12.2 -3.2,4.5 -11.1,15.8 -17.5,25 -15.2,21.7 -19.1,26.8 -20.6,26.8 -1.2,0 -4.7,-4.7 -21.3,-29 -4.6,-6.6 -10.2,-14.7 -12.6,-18 -2.3,-3.3 -6.4,-9.1 -9,-12.8 -8,-11.4 -6.5,-10.7 -23.5,-10.7 -11.8,0 -14.8,0.3 -14.8,1.4 z m 202.6,0.8 c -1,3.8 -0.7,87.5 0.4,90.2 2.1,5.7 1.4,5.6 67.2,5.4 l 60.3,-0.3 0.3,-11 c 0.2,-9.5 0,-11.1 -1.5,-12.2 -1.3,-1 -12.2,-1.3 -47.8,-1.3 -35.9,0 -46.5,-0.3 -47.9,-1.3 -1.3,-1 -1.7,-2.4 -1.4,-6.7 l 0.3,-5.5 42.5,-0.5 42.5,-0.5 0.3,-8.5 c 0.4,-13.6 4.5,-12.5 -43.4,-12.8 -30.7,-0.2 -41,-0.6 -41.6,-1.5 -0.4,-0.7 -0.8,-3.3 -0.8,-5.9 0,-3.7 0.4,-5 1.9,-5.8 1.3,-0.6 18.7,-1 49.5,-1 h 47.6 v -10.3 c 0,-6.7 -0.4,-10.7 -1.2,-11.5 -0.9,-0.9 -16.5,-1.2 -63.9,-1.2 h -62.7 z m 177.1,-1.5 c -0.4,0.3 -0.7,21.6 -0.7,47.3 0,44.3 0.1,46.8 1.9,48.4 1.5,1.4 3.7,1.6 13.7,1.4 l 11.9,-0.3 0.3,-15.4 c 0.1,-9.3 0.7,-16 1.3,-16.8 0.9,-1 7.1,-1.3 28.9,-1.3 h 27.7 l 11.4,13.2 c 6.3,7.3 13.2,14.9 15.3,17 l 3.9,3.8 h 14.8 c 8.9,0 15,-0.4 15.4,-1 0.6,-0.9 -4.1,-7.9 -7,-10.5 -0.6,-0.6 -3.8,-4.6 -7.2,-9 -3.3,-4.4 -6.8,-8.6 -7.7,-9.4 -2.5,-2.1 -1.9,-4.9 1.5,-6.7 4,-2 9,-7 12.6,-12.5 2.6,-4.2 2.8,-5 2.7,-14.9 -0.1,-12.7 -2,-17.8 -9.8,-25.6 -8.6,-8.6 -7.1,-8.4 -73.3,-8.4 -31.3,0 -57.3,0.3 -57.6,0.7 z m 109.3,25 c 1.7,2.2 2.1,3.6 1.5,6.8 -1.1,7.6 -0.1,7.5 -43,7.5 -28.3,0 -38.4,-0.3 -39.3,-1.2 -1.3,-1.3 -1.7,-14 -0.5,-15.1 0.3,-0.4 18.3,-0.7 39.9,-0.7 h 39.3 z"/></svg>