<?xml version="1.0" encoding="UTF-8" standalone="no"?>
<svg
   role="img"
   viewBox="0 0 24 16.304001"
   version="1.1"
   id="svg1"
   sodipodi:docname="toyota.svg"
   width="24"
   height="16.304001"
   inkscape:version="1.4.2 (f4327f4, 2025-05-13)"
   xmlns:inkscape="http://www.inkscape.org/namespaces/inkscape"
   xmlns:sodipodi="http://sodipodi.sourceforge.net/DTD/sodipodi-0.dtd"
   xmlns="http://www.w3.org/2000/svg"
   xmlns:svg="http://www.w3.org/2000/svg">
  <defs
     id="defs1" />
  <sodipodi:namedview
     id="namedview1"
     pagecolor="#ffffff"
     bordercolor="#000000"
     borderopacity="0.25"
     inkscape:showpageshadow="2"
     inkscape:pageopacity="0.0"
     inkscape:pagecheckerboard="0"
     inkscape:deskcolor="#d1d1d1"
     inkscape:zoom="32.625"
     inkscape:cx="12"
     inkscape:cy="8.137931"
     inkscape:window-width="1920"
     inkscape:window-height="1001"
     inkscape:window-x="-9"
     inkscape:window-y="-9"
     inkscape:window-maximized="1"
     inkscape:current-layer="svg1" />
  <title
     id="title1">Toyota</title>
  <path
     d="M 12,0 C 5.223,0 0,3.45 0,8.152 c 0,4.702 5.224,8.152 12,8.152 6.776,0 12,-3.45 12,-8.152 C 24,3.45 18.777,0 12,0 Z m 7.334,3.839 c 0,1.08 -1.725,1.913 -4.488,2.246 -0.26,-2.58 -1.005,-4.279 -1.963,-4.913 2.948,0.184 6.45,1.227 6.45,2.667 z M 12,12.553 c -0.96,0 -1.746,-1.5 -1.808,-4.389 0.577,0.047 1.18,0.072 1.808,0.072 0.628,0 1.23,-0.025 1.807,-0.072 -0.061,2.89 -0.847,4.389 -1.807,4.389 z m 0,-6.308 c -0.59,0 -1.155,-0.019 -1.69,-0.054 0.261,-1.728 0.92,-3.15 1.69,-3.15 0.77,0 1.428,1.422 1.689,3.15 C 13.154,6.225 12.59,6.245 12,6.245 Z M 11.118,1.17 C 10.162,1.803 9.412,3.503 9.154,6.085 6.391,5.752 4.665,4.919 4.665,3.839 c 0,-1.44 3.504,-2.49 6.453,-2.669 z M 2.037,7.832 A 5.265,5.265 0 0 1 3.085,4.668 c 0.27,1.547 2.522,2.881 5.972,3.37 v 0.114 c 0,3.772 0.879,6.203 2.087,6.97 -5.107,-0.321 -9.107,-3.48 -9.107,-7.29 z m 10.823,7.29 c 1.207,-0.767 2.087,-3.198 2.087,-6.97 V 8.037 c 3.447,-0.488 5.704,-1.826 5.972,-3.37 a 5.26,5.26 0 0 1 1.049,3.165 c -0.004,3.81 -4.008,6.969 -9.109,7.29 z"
     id="path1" />
</svg>
