<?xml version="1.0" standalone="no"?>
<!DOCTYPE svg PUBLIC "-//W3C//DTD SVG 20010904//EN"
 "http://www.w3.org/TR/2001/REC-SVG-20010904/DTD/svg10.dtd">
<svg version="1.0" xmlns="http://www.w3.org/2000/svg"
 width="512.000000pt" height="512.000000pt" viewBox="0 0 512.000000 512.000000"
 preserveAspectRatio="xMidYMid meet">
<g transform="translate(0.000000,512.000000) scale(0.100000,-0.100000)"
fill="#000000" stroke="none">
<path d="M2647 5106 c-54 -20 -103 -61 -132 -110 l-25 -43 -127 -7 c-500 -26
-941 -182 -1348 -475 -151 -108 -409 -363 -521 -513 -253 -340 -409 -726 -475
-1173 -18 -118 -18 -491 -1 -615 81 -579 324 -1067 728 -1462 390 -382 865
-612 1424 -689 122 -17 487 -18 605 -1 473 67 880 236 1232 514 99 78 286 260
367 358 348 420 542 919 572 1473 l7 127 40 23 c23 12 56 41 74 65 50 66 58
107 44 242 -31 310 -129 634 -275 915 -307 590 -824 1036 -1451 1251 -276 95
-645 155 -738 120z m213 -170 c1083 -145 1930 -991 2076 -2076 19 -143 18
-157 -11 -185 l-24 -25 -345 0 -345 0 -19 25 c-11 14 -23 45 -27 68 -46 287
-178 577 -374 818 -242 299 -616 521 -999 594 -53 11 -104 26 -118 37 l-24 19
0 340 c0 222 4 347 11 360 21 41 51 44 199 25z m-388 -448 c3 -333 7 -349 87
-421 51 -46 68 -53 196 -78 310 -62 584 -208 805 -429 221 -221 359 -478 425
-791 31 -145 44 -177 97 -225 75 -67 81 -68 407 -72 l294 -4 -7 -106 c-31
-480 -185 -902 -468 -1280 -93 -125 -316 -348 -439 -439 -322 -241 -671 -387
-1069 -449 -159 -25 -490 -25 -650 -1 -488 75 -920 287 -1265 619 -380 365
-611 812 -692 1338 -24 159 -24 491 0 650 79 511 296 942 656 1301 271 270
558 447 916 564 200 66 445 109 647 114 l56 1 4 -292z"/>
<path d="M2998 4767 c-173 -55 -237 -272 -119 -408 94 -111 269 -120 369 -19
105 105 106 257 3 360 -71 71 -163 95 -253 67z m134 -185 c10 -9 20 -31 24
-48 9 -44 -35 -94 -82 -94 -89 0 -116 115 -39 159 25 14 75 6 97 -17z"/>
<path d="M4465 3321 c-69 -17 -140 -72 -172 -134 -9 -18 -18 -61 -21 -97 -19
-269 342 -378 471 -142 37 68 43 125 23 197 -37 127 -174 207 -301 176z m116
-187 c26 -24 33 -68 15 -102 -26 -50 -91 -58 -131 -17 -76 75 37 191 116 119z"/>
<path d="M1639 4441 c-59 -60 -25 -122 80 -147 84 -19 151 -57 205 -114 45
-48 96 -136 96 -165 0 -26 55 -75 83 -75 14 0 39 12 56 26 38 31 40 60 10 141
-63 168 -212 302 -386 347 -87 23 -110 21 -144 -13z"/>
<path d="M877 3840 c-31 -10 -68 -25 -81 -34 -51 -33 -40 -118 19 -142 25 -10
40 -9 90 7 46 15 81 19 150 16 103 -4 169 -29 244 -94 32 -27 53 -37 77 -37
47 0 84 37 84 83 0 29 -8 43 -49 81 -60 57 -145 103 -227 124 -85 22 -233 20
-307 -4z"/>
<path d="M2335 3834 c-306 -45 -523 -137 -735 -313 -241 -200 -396 -463 -467
-791 -27 -125 -25 -400 4 -530 107 -482 445 -865 893 -1014 176 -58 254 -71
445 -71 181 0 259 11 419 62 408 127 752 471 879 879 51 162 62 237 61 424 0
152 -4 190 -27 287 -62 268 -176 474 -371 669 -260 260 -559 389 -921 399 -82
2 -163 1 -180 -1z m318 -179 c168 -25 356 -99 499 -197 81 -54 216 -185 279
-268 95 -125 179 -314 215 -480 25 -116 25 -351 0 -470 -106 -496 -501 -871
-996 -946 -567 -85 -1123 255 -1305 798 -119 356 -71 726 136 1043 60 93 227
264 316 323 140 95 319 167 473 192 41 6 82 13 90 15 44 8 207 3 293 -10z"/>
<path d="M2410 3491 c-83 -27 -159 -102 -180 -176 -60 -213 161 -397 358 -299
188 93 186 359 -2 456 -43 22 -136 32 -176 19z m122 -191 c26 -27 30 -36 25
-68 -12 -70 -92 -97 -142 -47 -35 34 -33 78 4 116 39 38 74 38 113 -1z"/>
<path d="M1685 2961 c-51 -13 -91 -39 -133 -86 -47 -54 -67 -116 -59 -189 28
-271 407 -311 493 -52 62 185 -112 373 -301 327z m124 -198 c46 -53 7 -133
-66 -133 -78 0 -109 85 -53 142 26 25 36 29 63 24 18 -3 43 -18 56 -33z"/>
<path d="M3122 2951 c-65 -23 -117 -70 -148 -136 -78 -164 46 -355 230 -355
140 0 242 95 254 235 9 115 -68 226 -179 259 -67 20 -91 20 -157 -3z m146
-187 c48 -54 10 -134 -64 -134 -98 0 -117 128 -24 163 26 10 64 -3 88 -29z"/>
<path d="M2411 2810 c-268 -55 -368 -382 -176 -575 177 -176 475 -109 561 127
21 55 21 171 0 226 -57 156 -227 254 -385 222z m149 -191 c97 -55 110 -215 21
-278 -133 -95 -309 20 -270 176 11 42 58 99 94 114 39 16 116 10 155 -12z"/>
<path d="M1949 2097 c-87 -33 -137 -81 -165 -159 -58 -164 63 -338 236 -337
103 0 177 44 226 131 24 45 29 64 29 123 -1 78 -16 118 -69 173 -64 68 -177
99 -257 69z m132 -186 c31 -31 36 -59 17 -94 -17 -33 -39 -46 -76 -47 -86 -1
-113 114 -37 158 33 19 65 13 96 -17z"/>
<path d="M2860 2101 c-144 -47 -217 -183 -176 -325 56 -193 328 -238 446 -74
94 129 47 315 -95 382 -42 20 -137 30 -175 17z m119 -187 c24 -20 31 -34 31
-60 0 -89 -116 -116 -158 -37 -19 35 -14 63 17 94 36 36 70 37 110 3z"/>
<path d="M739 3030 c-87 -14 -167 -46 -243 -97 -143 -98 -188 -206 -104 -249
44 -23 75 -10 137 53 34 35 79 67 120 87 64 30 70 31 204 31 134 0 139 1 158
24 48 59 5 132 -85 145 -96 13 -133 14 -187 6z"/>
<path d="M4485 2270 c-11 -5 -43 -33 -72 -62 -28 -30 -77 -67 -110 -83 -56
-29 -62 -30 -201 -30 -139 0 -144 -1 -163 -24 -21 -26 -25 -78 -6 -102 25 -33
62 -43 178 -47 163 -6 259 24 377 118 111 87 140 165 81 214 -32 27 -50 31
-84 16z"/>
<path d="M840 2170 c-159 -58 -300 -215 -345 -386 -22 -86 -20 -111 15 -146
26 -25 36 -29 63 -24 46 9 66 34 82 105 30 127 102 218 218 276 38 19 76 35
83 35 21 0 54 50 54 82 0 40 -40 78 -82 78 -18 -1 -58 -10 -88 -20z"/>
<path d="M1284 1460 c-55 -22 -151 -170 -179 -276 -36 -131 -9 -341 50 -400
30 -30 73 -31 109 -3 31 25 35 70 10 143 -12 35 -15 71 -12 134 5 100 31 165
98 246 46 56 51 92 18 130 -26 29 -63 39 -94 26z"/>
<path d="M3514 1376 c-21 -18 -28 -32 -28 -61 0 -33 7 -44 47 -81 132 -119
323 -175 483 -141 129 28 185 72 169 134 -15 61 -70 77 -159 47 -61 -21 -202
-15 -265 11 -24 10 -71 40 -104 67 -69 55 -101 60 -143 24z"/>
<path d="M1961 1011 c-29 -29 -44 -95 -44 -196 0 -137 37 -245 123 -353 95
-121 185 -146 229 -64 20 37 4 72 -57 132 -32 31 -70 82 -87 115 -29 58 -30
64 -30 201 0 126 -2 144 -19 163 -25 28 -88 29 -115 2z"/>
<path d="M2781 974 c-27 -35 -26 -70 4 -146 31 -77 97 -167 162 -221 100 -83
277 -145 341 -118 75 31 64 139 -16 157 -123 28 -165 48 -233 111 -45 42 -119
166 -119 199 0 21 -42 44 -81 44 -29 0 -43 -6 -58 -26z"/>
</g>
</svg>
