<?xml version="1.0" standalone="no"?>
<!DOCTYPE svg PUBLIC "-//W3C//DTD SVG 20010904//EN"
 "http://www.w3.org/TR/2001/REC-SVG-20010904/DTD/svg10.dtd">
<svg version="1.0" xmlns="http://www.w3.org/2000/svg"
 width="512.000000pt" height="512.000000pt" viewBox="0 0 512.000000 512.000000"
 preserveAspectRatio="xMidYMid meet">
<g transform="translate(0.000000,512.000000) scale(0.100000,-0.100000)"
fill="#000000" stroke="none">
<path d="M698 4426 c-53 -14 -106 -52 -138 -97 -39 -53 -50 -113 -50 -261 l0
-138 -167 0 c-232 -1 -273 -13 -320 -96 -21 -37 -23 -50 -23 -247 0 -153 4
-216 14 -240 17 -43 67 -84 116 -97 l40 -11 2 -1187 3 -1187 22 -41 c30 -57
97 -111 157 -129 75 -23 4337 -23 4412 0 60 18 127 72 157 129 l22 41 3 1187
2 1187 40 11 c49 13 99 54 116 97 10 24 14 87 14 240 0 197 -2 210 -23 247
-47 83 -88 95 -319 96 l-168 0 0 138 c0 162 -13 219 -65 279 -19 23 -56 52
-83 65 -46 23 -52 23 -367 23 l-320 0 -54 -30 c-54 -30 -84 -62 -117 -125 -14
-28 -19 -66 -22 -192 l-4 -158 -1019 0 -1019 0 0 125 c0 68 -5 147 -11 175
-16 73 -63 137 -129 174 l-55 31 -300 2 c-220 2 -312 -1 -347 -11z m622 -171
c41 -21 52 -68 48 -205 l-3 -115 -342 -3 -343 -2 0 129 c0 145 7 173 47 195
41 22 550 23 593 1z m3069 1 c43 -23 51 -54 51 -197 l0 -129 -342 2 -343 3 -3
115 c-4 135 7 184 46 204 39 22 550 23 591 2z m561 -676 l0 -170 -2390 0
-2390 0 0 170 0 170 2390 0 2390 0 0 -170z m-172 -1510 l-3 -1169 -23 -23 -23
-23 -2169 0 -2169 0 -23 23 -23 23 -3 1169 -2 1170 2220 0 2220 0 -2 -1170z"/>
<path d="M2588 2677 c-656 -240 -657 -241 -679 -321 -21 -78 -5 -103 189 -299
l176 -177 -251 -253 c-274 -276 -281 -285 -246 -354 25 -50 62 -76 109 -75 36
1 1179 408 1254 447 35 18 67 65 76 110 11 61 -14 98 -195 281 l-174 176 250
251 c258 260 271 277 256 338 -16 61 -65 100 -125 98 -18 0 -306 -100 -640
-222z m259 -225 c-213 -214 -221 -226 -196 -275 6 -12 94 -106 196 -208 l185
-186 -464 -168 c-255 -92 -470 -170 -478 -173 -8 -3 74 85 183 195 170 171
198 204 204 236 l6 38 -199 199 c-109 110 -196 201 -193 203 7 5 943 345 954
346 5 1 -84 -93 -198 -207z"/>
</g>
</svg>
