<?xml version="1.0" standalone="no"?>
<!DOCTYPE svg PUBLIC "-//W3C//DTD SVG 20010904//EN"
 "http://www.w3.org/TR/2001/REC-SVG-20010904/DTD/svg10.dtd">
<svg version="1.0" xmlns="http://www.w3.org/2000/svg"
 width="512.000000pt" height="512.000000pt" viewBox="0 0 512.000000 512.000000"
 preserveAspectRatio="xMidYMid meet">
<g transform="translate(0.000000,512.000000) scale(0.100000,-0.100000)"
fill="#000000" stroke="none">
<path d="M1268 4770 c-311 -39 -584 -175 -813 -405 -391 -391 -533 -929 -409
-1544 14 -69 43 -179 64 -245 l40 -121 -22 -15 c-152 -98 -169 -300 -36 -414
55 -47 120 -66 232 -66 l91 -1 58 -84 c274 -393 751 -812 1301 -1145 292 -176
717 -384 786 -384 73 0 519 221 817 405 1101 677 1702 1513 1740 2419 32 779
-461 1445 -1175 1587 -131 26 -385 23 -519 -5 -285 -61 -533 -195 -750 -406
l-113 -109 -113 109 c-218 212 -469 347 -749 404 -114 24 -326 33 -430 20z
m390 -186 c251 -51 472 -168 663 -351 54 -52 115 -117 136 -145 76 -99 126
-100 202 -4 75 95 226 234 321 297 234 155 448 222 715 222 273 1 496 -74 712
-237 539 -407 689 -1137 386 -1881 -244 -601 -809 -1179 -1618 -1655 -182
-107 -580 -303 -614 -303 -32 0 -349 152 -538 259 -566 319 -1019 689 -1334
1086 l-69 88 218 0 c250 0 293 8 362 67 50 43 68 80 161 331 35 94 66 172 69
172 4 0 89 -260 189 -577 101 -318 194 -599 207 -625 57 -113 213 -164 329
-108 97 47 107 67 270 530 81 231 149 420 150 420 2 0 15 -25 29 -55 15 -30
46 -70 69 -90 74 -64 86 -65 622 -65 537 0 548 1 623 66 139 119 115 334 -47
417 l-55 27 -402 0 -402 0 -48 118 c-154 376 -183 445 -198 467 -24 36 -92 83
-139 96 -95 25 -224 -24 -276 -106 -15 -24 -85 -208 -156 -409 -71 -201 -132
-366 -135 -366 -3 0 -86 255 -185 566 -98 312 -187 583 -196 603 -37 82 -127
140 -218 141 -83 0 -130 -19 -187 -75 l-51 -50 -167 -450 c-93 -247 -176 -469
-187 -492 l-18 -43 -253 0 c-139 0 -258 4 -264 8 -19 11 -92 240 -119 367
-113 546 5 1028 339 1384 182 193 456 334 721 370 92 13 285 5 383 -15z m-151
-1196 c14 -16 96 -259 247 -733 240 -755 240 -755 301 -755 60 0 73 28 240
505 216 615 191 554 232 572 29 12 41 12 66 2 35 -15 33 -11 177 -369 58 -143
113 -266 127 -280 l23 -25 441 -5 441 -5 19 -24 c26 -32 24 -74 -5 -108 l-24
-28 -496 0 c-482 0 -496 1 -515 20 -10 11 -42 79 -71 150 -69 172 -74 181
-110 194 -35 12 -67 3 -91 -25 -9 -11 -99 -253 -199 -539 -101 -286 -192 -530
-202 -541 -39 -44 -115 -31 -136 22 -7 16 -113 346 -236 734 -173 542 -229
709 -246 722 -31 25 -82 23 -108 -5 -12 -13 -78 -172 -147 -357 -69 -184 -135
-344 -146 -355 -19 -19 -33 -20 -445 -20 l-426 0 -25 29 c-20 24 -24 36 -19
65 11 68 -3 65 407 71 l371 5 21 25 c12 14 107 253 211 530 103 278 198 515
209 528 14 15 32 22 57 22 25 0 43 -7 57 -22z"/>
</g>
</svg>
