<?xml version="1.0" standalone="no"?>
<!DOCTYPE svg PUBLIC "-//W3C//DTD SVG 20010904//EN"
 "http://www.w3.org/TR/2001/REC-SVG-20010904/DTD/svg10.dtd">
<svg version="1.0" xmlns="http://www.w3.org/2000/svg"
 width="512.000000pt" height="512.000000pt" viewBox="0 0 512.000000 512.000000"
 preserveAspectRatio="xMidYMid meet">
<g transform="translate(0.000000,512.000000) scale(0.100000,-0.100000)"
fill="#000000" stroke="none">
<path d="M4146 5104 c-28 -9 -68 -29 -90 -44 -23 -16 -248 -236 -501 -489
-253 -254 -465 -461 -470 -461 -6 0 -36 26 -68 58 l-57 58 76 74 c101 100 119
134 119 230 0 83 -15 121 -69 178 -68 73 -170 98 -267 67 -50 -16 -81 -44
-451 -413 -410 -408 -442 -446 -454 -534 -13 -97 49 -213 140 -261 32 -17 58
-22 116 -22 96 0 130 18 230 119 l74 76 63 -62 63 -63 -264 -265 c-313 -313
-321 -325 -321 -465 0 -130 23 -174 169 -323 l115 -117 -919 -184 c-563 -113
-930 -190 -948 -201 -42 -26 -80 -76 -88 -116 -13 -68 10 -111 115 -217 106
-109 149 -136 225 -144 40 -3 1633 71 2196 103 132 7 211 26 277 66 34 21 370
350 981 962 1046 1049 976 967 976 1126 1 71 -4 94 -25 140 -15 30 -146 267
-293 525 -284 500 -309 536 -405 581 -69 33 -175 41 -245 18z m169 -173 c22
-10 49 -29 61 -42 38 -44 565 -986 570 -1021 3 -18 1 -54 -6 -78 -11 -41 -89
-122 -922 -957 -618 -618 -926 -920 -958 -937 -25 -14 -64 -28 -86 -31 -35 -5
-2201 -115 -2268 -115 -22 0 -47 18 -110 79 -44 44 -78 82 -76 84 3 2 453 93
1000 202 1097 219 1040 204 1040 281 0 34 -12 49 -179 218 -99 100 -184 194
-190 209 -16 43 -13 94 8 135 28 53 1936 1957 1981 1976 47 20 87 19 135 -3z
m-1354 -340 c20 -21 29 -39 29 -63 0 -30 -34 -67 -393 -425 -343 -343 -396
-393 -422 -393 -63 0 -104 56 -85 114 6 20 137 158 382 402 205 205 382 377
393 383 34 18 65 12 96 -18z m-56 -551 l60 -60 -123 -123 -122 -122 -62 63
-63 62 120 120 c66 66 122 120 125 120 3 0 32 -27 65 -60z"/>
<path d="M4125 4642 c-49 -32 -273 -265 -285 -295 -15 -42 -12 -87 9 -132 23
-49 532 -559 574 -574 41 -16 104 -13 142 5 40 19 141 122 155 159 23 61 13
106 -51 220 -232 418 -332 586 -362 607 -44 32 -140 37 -182 10z m269 -476
l168 -299 -36 -36 -36 -36 -245 245 -245 245 102 102 c79 79 105 100 114 90 6
-6 86 -146 178 -311z"/>
<path d="M445 1436 c-41 -18 -84 -69 -172 -202 -212 -322 -310 -646 -258 -847
48 -186 193 -328 376 -372 267 -63 534 96 613 364 30 104 17 268 -34 423 -73
218 -294 584 -381 628 -44 23 -101 25 -144 6z m186 -331 c80 -127 134 -240
176 -363 32 -95 37 -119 37 -212 1 -94 -2 -111 -26 -162 -32 -70 -96 -133
-168 -167 -46 -22 -69 -26 -140 -26 -71 0 -94 4 -141 26 -106 50 -182 154
-196 268 -20 170 101 477 294 749 l45 62 31 -42 c17 -24 56 -84 88 -133z"/>
</g>
</svg>
