<?xml version="1.0" standalone="no"?>
<!DOCTYPE svg PUBLIC "-//W3C//DTD SVG 20010904//EN"
 "http://www.w3.org/TR/2001/REC-SVG-20010904/DTD/svg10.dtd">
<svg version="1.0" xmlns="http://www.w3.org/2000/svg"
 width="512.000000pt" height="512.000000pt" viewBox="0 0 512.000000 512.000000"
 preserveAspectRatio="xMidYMid meet">
<g transform="translate(0.000000,512.000000) scale(0.100000,-0.100000)"
fill="#000000" stroke="none">
<path d="M2477 5106 c-97 -35 -154 -110 -170 -223 -6 -43 -11 -79 -12 -80 0
-1 -23 9 -50 22 -89 45 -203 30 -279 -37 -111 -97 -117 -267 -14 -369 19 -19
105 -88 191 -154 l156 -120 1 -480 0 -480 -338 338 -338 338 28 222 c23 181
26 231 18 272 -29 138 -167 227 -302 196 -74 -16 -139 -67 -172 -132 -14 -29
-26 -64 -26 -77 0 -22 -2 -22 -47 18 -74 65 -98 74 -188 75 -59 0 -90 -5 -118
-19 -88 -43 -139 -127 -138 -227 0 -73 25 -132 81 -193 41 -44 41 -46 18 -46
-38 0 -125 -48 -158 -88 -33 -40 -60 -116 -60 -167 0 -99 84 -210 181 -240 52
-15 64 -15 287 12 l233 27 337 -337 337 -337 -480 0 -480 1 -142 183 c-125
161 -149 187 -195 210 -58 29 -132 34 -202 14 -55 -16 -138 -99 -154 -154 -20
-69 -15 -144 13 -200 14 -27 25 -49 25 -50 0 -1 -29 -4 -64 -7 -75 -7 -118
-23 -164 -62 -101 -85 -120 -236 -42 -343 46 -64 97 -93 187 -105 43 -6 79
-11 80 -12 1 0 -9 -23 -22 -50 -52 -101 -26 -227 61 -303 99 -88 253 -83 345
10 19 19 88 105 154 191 l120 156 480 1 480 0 -335 -335 c-273 -273 -340 -335
-362 -335 -14 0 -119 12 -232 26 -197 24 -208 25 -262 9 -100 -29 -184 -139
-184 -240 0 -51 27 -127 60 -167 33 -40 120 -88 158 -88 23 0 23 -2 -18 -46
-56 -61 -81 -120 -81 -193 -1 -137 94 -239 233 -249 76 -6 141 18 206 74 49
43 52 44 52 22 0 -38 49 -125 88 -158 40 -33 116 -60 167 -60 100 0 210 84
240 181 15 52 15 65 -12 287 l-27 233 337 337 337 337 0 -480 -1 -480 -183
-142 c-161 -125 -187 -149 -210 -195 -29 -58 -34 -132 -14 -202 16 -55 99
-138 154 -154 68 -20 144 -15 199 13 27 13 50 23 50 22 1 -1 6 -37 12 -81 13
-93 44 -144 116 -193 84 -56 190 -56 274 0 72 49 103 100 116 193 6 44 11 80
12 81 0 1 23 -9 50 -22 89 -45 203 -30 279 37 88 77 112 201 60 306 -23 46
-49 70 -210 195 l-183 142 -1 480 0 480 338 -338 338 -338 -28 -222 c-33 -251
-30 -294 23 -367 62 -85 162 -124 264 -101 95 21 177 105 192 195 l6 35 51
-44 c177 -156 438 -51 438 175 0 72 -26 133 -82 194 -41 44 -41 46 -18 46 38
0 125 48 158 88 62 75 75 194 31 280 -28 55 -96 110 -158 128 -50 14 -66 14
-261 -10 -115 -14 -219 -26 -233 -26 -18 0 -102 78 -359 335 l-335 335 480 0
480 -1 142 -183 c125 -161 149 -187 195 -210 103 -52 234 -25 309 63 65 75 79
189 34 276 -13 27 -23 50 -22 50 1 1 37 6 81 12 93 13 144 44 193 116 56 84
56 190 0 274 -49 72 -100 103 -193 116 -44 6 -80 11 -81 12 -1 0 9 23 22 50
28 55 33 131 13 199 -16 55 -99 138 -154 154 -70 20 -144 15 -202 -14 -46 -23
-70 -49 -195 -210 l-142 -183 -480 -1 -480 0 335 335 c292 292 339 335 365
335 16 0 118 -11 225 -25 222 -29 269 -25 339 25 114 83 142 240 64 353 -34
49 -104 95 -155 104 l-38 6 41 44 c57 62 79 115 79 193 0 139 -92 237 -232
248 -76 6 -141 -18 -204 -73 l-51 -44 -6 35 c-18 107 -135 204 -248 204 -103
0 -214 -82 -244 -181 -15 -52 -15 -65 12 -287 l27 -233 -337 -337 -337 -337 0
480 1 480 183 142 c161 125 187 149 210 195 52 103 25 234 -63 309 -75 65
-189 79 -276 34 -27 -13 -50 -23 -50 -22 -1 1 -6 37 -12 80 -20 144 -118 236
-253 236 -25 0 -62 -6 -83 -13z m139 -177 c24 -20 34 -82 34 -221 0 -136 0
-137 26 -157 46 -36 74 -28 182 54 112 84 145 93 187 50 27 -27 33 -79 12
-105 -7 -9 -95 -80 -197 -159 -102 -79 -191 -150 -197 -159 -10 -12 -13 -159
-13 -656 l0 -640 22 -23 c15 -16 33 -23 57 -23 34 0 60 24 489 453 353 353
452 458 452 477 0 14 -13 130 -30 258 -19 149 -26 241 -21 255 19 48 72 67
120 43 34 -18 45 -49 56 -156 13 -132 35 -170 99 -170 24 0 50 20 142 110 103
101 116 110 150 110 52 0 84 -31 84 -83 0 -36 -8 -47 -110 -151 -90 -92 -110
-118 -110 -142 0 -64 38 -86 170 -99 106 -11 138 -22 155 -55 19 -37 19 -60
-1 -88 -29 -42 -50 -43 -296 -12 -128 17 -244 30 -258 30 -19 0 -124 -99 -477
-452 -422 -422 -453 -455 -453 -487 0 -22 8 -43 22 -58 l21 -23 642 0 c498 0
645 3 656 13 9 6 81 95 160 197 79 102 150 190 159 197 26 21 78 15 105 -12
43 -42 34 -75 -50 -187 -81 -107 -90 -136 -55 -181 20 -25 22 -25 178 -29 181
-3 206 -12 218 -73 8 -47 -15 -81 -63 -94 -21 -6 -100 -11 -175 -11 -136 0
-137 0 -157 -26 -36 -46 -28 -74 54 -182 84 -112 93 -145 50 -187 -27 -27 -79
-33 -105 -12 -9 7 -80 95 -159 197 -79 102 -151 191 -160 198 -11 9 -158 12
-655 12 l-640 0 -23 -22 c-16 -15 -23 -33 -23 -57 0 -34 24 -60 453 -489 353
-353 458 -452 477 -452 14 0 130 13 258 30 246 31 267 30 296 -12 20 -28 20
-51 1 -88 -17 -33 -49 -44 -155 -55 -132 -13 -170 -35 -170 -99 0 -24 20 -50
110 -142 101 -103 110 -116 110 -150 0 -52 -31 -84 -83 -84 -36 0 -47 8 -151
110 -92 90 -118 110 -142 110 -64 0 -86 -38 -99 -170 -11 -106 -22 -138 -55
-155 -37 -19 -60 -19 -88 1 -42 29 -42 49 -11 296 16 128 29 244 29 258 0 19
-99 123 -452 477 -422 422 -455 453 -487 453 -22 0 -43 -8 -58 -22 l-23 -21 0
-642 c0 -498 3 -645 13 -657 6 -9 95 -80 197 -159 102 -79 190 -150 197 -159
21 -26 15 -78 -12 -105 -42 -43 -75 -34 -187 50 -108 82 -136 90 -182 54 -26
-20 -26 -21 -27 -162 0 -82 -5 -157 -12 -177 -22 -64 -108 -78 -145 -22 -14
21 -18 56 -20 184 -4 156 -4 158 -29 178 -45 35 -74 26 -181 -55 -112 -84
-145 -93 -187 -50 -27 27 -33 79 -12 105 7 9 95 80 197 159 102 79 191 150
198 159 9 12 12 159 12 656 l0 640 -22 23 c-15 16 -33 23 -57 23 -34 0 -60
-24 -489 -453 -353 -353 -452 -458 -452 -477 0 -14 13 -130 30 -258 31 -246
30 -267 -12 -296 -28 -20 -51 -20 -88 -1 -33 17 -44 49 -55 155 -13 132 -35
170 -99 170 -24 0 -50 -20 -142 -110 -103 -101 -116 -110 -150 -110 -52 0 -84
31 -84 82 0 36 9 48 110 153 88 90 110 119 110 142 0 63 -38 85 -170 98 -106
11 -138 22 -155 55 -19 37 -19 60 1 88 29 42 50 43 296 12 128 -17 244 -30
258 -30 19 0 124 99 477 452 422 422 453 455 453 487 0 22 -8 43 -22 58 l-21
23 -642 0 c-498 0 -645 -3 -657 -12 -8 -7 -73 -87 -143 -178 -168 -217 -181
-230 -222 -230 -45 0 -83 38 -83 81 0 24 18 56 75 131 81 107 90 136 55 181
-20 25 -22 25 -178 29 -130 2 -163 6 -185 21 -48 31 -48 103 0 134 22 15 57
19 186 23 152 5 160 6 178 29 34 42 25 72 -56 179 -84 112 -93 145 -50 187 26
27 79 33 105 12 9 -7 80 -95 159 -197 79 -102 151 -191 159 -197 12 -10 159
-13 656 -13 l640 0 23 22 c16 15 23 33 23 57 0 34 -24 60 -453 489 -353 353
-458 452 -477 452 -14 0 -130 -13 -258 -30 -246 -31 -267 -30 -296 12 -20 28
-20 51 -1 88 17 33 49 44 155 55 132 13 170 35 170 99 0 24 -20 50 -110 142
-101 103 -110 116 -110 150 0 52 31 84 83 84 36 0 47 -8 151 -110 92 -90 118
-110 142 -110 64 0 86 38 99 170 11 106 22 138 55 155 37 19 60 19 88 -1 42
-29 43 -50 12 -296 -17 -128 -30 -244 -30 -258 0 -19 99 -124 452 -477 422
-422 455 -453 487 -453 22 0 43 8 58 22 l23 21 0 642 c0 498 -3 645 -12 657
-7 9 -96 80 -198 159 -102 79 -190 150 -197 159 -21 26 -15 78 12 105 42 43
75 34 187 -50 108 -82 136 -90 182 -54 26 20 26 21 27 162 0 157 11 205 49
224 27 14 74 10 96 -8z"/>
</g>
</svg>
