<?xml version="1.0" standalone="no"?>
<!DOCTYPE svg PUBLIC "-//W3C//DTD SVG 20010904//EN"
 "http://www.w3.org/TR/2001/REC-SVG-20010904/DTD/svg10.dtd">
<svg version="1.0" xmlns="http://www.w3.org/2000/svg"
 width="512.000000pt" height="512.000000pt" viewBox="0 0 512.000000 512.000000"
 preserveAspectRatio="xMidYMid meet">
<g transform="translate(0.000000,512.000000) scale(0.100000,-0.100000)"
fill="#000000" stroke="none">
<path d="M2320 5109 c-628 -69 -1167 -330 -1595 -770 -316 -326 -535 -718
-645 -1154 -57 -228 -75 -373 -75 -625 0 -252 18 -397 75 -625 48 -190 93
-311 185 -500 248 -508 663 -923 1170 -1170 184 -90 306 -135 484 -181 891
-230 1829 32 2467 687 201 207 347 413 469 664 89 182 136 308 180 480 113
443 113 847 0 1290 -44 172 -91 298 -180 480 -201 412 -505 757 -896 1015
-310 205 -654 335 -1039 395 -126 19 -479 28 -600 14z m153 -221 c5 -51 10
-67 32 -85 14 -13 39 -23 55 -23 16 0 41 10 55 23 22 18 27 34 32 84 l6 62 66
-5 c380 -30 750 -145 1059 -329 125 -75 119 -66 83 -119 -18 -26 -31 -57 -31
-76 0 -42 39 -80 82 -80 38 1 53 11 92 62 l28 38 41 -33 c151 -118 351 -339
472 -522 119 -179 270 -486 248 -505 -4 -3 -29 -15 -56 -24 -53 -20 -67 -39
-67 -90 0 -25 7 -40 26 -55 30 -24 60 -26 116 -9 49 15 49 15 76 -110 84 -377
78 -787 -18 -1141 -10 -40 -13 -43 -38 -37 -86 21 -110 19 -136 -7 -49 -49
-23 -124 52 -147 20 -7 41 -16 45 -20 23 -21 -150 -366 -271 -539 -119 -171
-310 -379 -449 -488 l-41 -33 -27 38 c-39 52 -54 62 -92 62 -44 0 -83 -38 -83
-80 0 -19 13 -50 31 -77 25 -36 29 -47 18 -54 -163 -108 -374 -211 -561 -273
-146 -49 -386 -101 -508 -111 -41 -3 -93 -8 -116 -11 l-41 -5 -6 63 c-5 51
-10 67 -32 85 -33 29 -77 29 -110 0 -22 -18 -27 -34 -32 -85 l-6 -63 -41 5
c-23 3 -75 8 -116 11 -213 17 -544 109 -756 210 -92 43 -248 130 -314 174 -12
8 -9 17 18 55 20 27 32 56 32 76 0 42 -39 80 -83 80 -38 0 -53 -10 -92 -63
l-28 -37 -56 47 c-219 182 -419 424 -560 678 -73 132 -156 324 -144 335 4 4
25 13 45 20 75 23 100 94 52 145 -26 28 -49 30 -135 9 -24 -5 -27 -2 -42 53
-32 115 -58 281 -69 436 -18 239 9 533 69 750 15 55 18 58 42 53 83 -20 111
-19 136 4 17 16 25 34 25 57 0 50 -14 69 -67 89 -27 9 -52 20 -56 24 -21 18
128 325 239 493 125 187 294 378 449 506 l73 61 28 -38 c39 -51 54 -61 92 -62
43 0 82 38 82 80 0 19 -13 50 -31 77 -25 37 -29 47 -18 55 133 89 366 205 525
261 180 63 442 118 619 130 28 2 57 4 66 5 13 2 17 -11 22 -60z"/>
<path d="M2311 4334 c-671 -98 -1224 -554 -1445 -1193 -20 -58 -49 -161 -63
-230 -25 -115 -27 -145 -27 -351 0 -206 2 -236 27 -351 156 -735 716 -1280
1452 -1415 141 -26 469 -26 610 0 536 98 986 416 1253 884 145 253 218 514
229 817 19 503 -166 974 -522 1331 -231 232 -545 408 -858 479 -196 45 -465
57 -656 29z m564 -184 c743 -157 1272 -775 1302 -1520 26 -641 -320 -1230
-892 -1518 -729 -365 -1619 -130 -2073 548 -111 167 -197 375 -243 590 -20 90
-23 135 -23 310 0 230 14 322 80 520 194 582 711 1004 1334 1090 111 15 401 4
515 -20z"/>
<path d="M2405 4004 c-122 -19 -214 -40 -301 -69 -493 -164 -854 -570 -966
-1088 -32 -147 -32 -427 0 -574 30 -137 73 -257 137 -381 202 -388 560 -659
998 -754 147 -32 427 -32 574 0 137 30 257 73 381 137 389 202 659 560 754
998 31 147 31 427 0 574 -62 288 -193 529 -402 739 -197 199 -449 335 -728
394 -95 20 -374 35 -447 24z m250 -176 c2 -7 16 -173 30 -368 14 -195 30 -367
36 -382 7 -18 33 -40 73 -62 34 -19 90 -60 124 -90 39 -35 72 -56 87 -56 13 0
178 38 366 85 189 47 351 85 361 85 13 0 24 -20 44 -86 15 -49 23 -89 18 -93
-5 -5 -151 -66 -324 -136 -173 -70 -329 -134 -347 -142 -35 -16 -46 -39 -64
-128 -6 -33 -24 -88 -40 -122 -16 -34 -29 -72 -29 -85 0 -13 90 -167 200 -343
l199 -320 -22 -17 c-12 -10 -48 -36 -79 -58 l-57 -40 -231 274 c-127 152 -241
283 -254 293 -20 16 -43 19 -189 18 -129 -1 -169 -4 -183 -15 -9 -8 -123 -140
-251 -293 l-235 -278 -51 38 c-29 20 -64 47 -78 58 l-27 22 199 319 c110 177
199 329 199 342 0 13 -14 56 -31 95 -17 39 -36 100 -42 135 -7 41 -19 71 -32
84 -12 11 -173 82 -358 158 -185 75 -340 140 -343 143 -4 3 5 45 20 92 22 69
30 85 47 85 10 0 172 -38 359 -85 187 -47 351 -85 364 -85 16 0 48 20 88 56
35 31 90 70 123 89 33 18 65 43 72 57 7 14 23 175 38 384 14 197 28 365 30
372 3 8 31 12 95 12 63 0 92 -4 95 -12z m-365 -30 c-1 -7 -11 -152 -24 -323
-20 -273 -25 -310 -41 -320 -10 -5 -47 -32 -82 -58 l-64 -48 -309 76 c-171 43
-310 79 -310 82 0 18 105 158 173 229 150 159 360 290 557 348 101 30 100 29
100 14z m685 -30 c180 -59 359 -173 499 -318 74 -77 186 -222 186 -241 0 -4
-139 -41 -310 -84 l-309 -76 -64 48 c-35 26 -72 53 -82 59 -16 9 -20 40 -36
260 -10 137 -20 282 -24 322 l-6 73 28 -7 c15 -3 69 -19 118 -36z m-1128
-1306 c35 -13 42 -21 48 -51 4 -20 17 -63 30 -95 l24 -60 -171 -274 -172 -274
-28 33 c-46 55 -133 189 -168 258 -48 96 -97 256 -114 374 -16 103 -21 271
-10 300 4 12 58 -7 262 -90 141 -58 276 -112 299 -121z m1993 108 c0 -297
-111 -608 -298 -829 l-28 -33 -172 274 -171 274 24 60 c13 32 26 75 30 94 l6
35 297 121 c195 79 300 117 304 110 4 -6 8 -54 8 -106z m-974 -932 c233 -276
225 -251 93 -293 -149 -47 -235 -60 -399 -60 -164 0 -250 13 -399 60 -132 42
-140 17 94 295 l206 245 100 -2 101 -1 204 -244z"/>
<path d="M2517 2889 c-19 -11 -192 -265 -207 -304 -6 -16 -5 -35 2 -56 15 -43
58 -59 163 -59 47 0 85 -2 85 -5 0 -2 -18 -32 -40 -66 -22 -34 -41 -69 -41
-78 -6 -76 59 -124 122 -91 20 11 193 263 209 306 15 38 -10 89 -50 103 -18 6
-71 11 -116 11 -46 0 -84 2 -84 5 0 3 18 34 40 67 50 77 54 126 14 157 -29 23
-68 27 -97 10z"/>
</g>
</svg>
